<svg width="50" height="50" viewBox="0 0 50 50" fill="none" xmlns="http://www.w3.org/2000/svg">
<path d="M42.6052 7.32172C37.8952 2.60417 31.6252 0 24.9552 0C20.0052 0 15.2152 1.46234 11.0952 4.21675C6.97519 6.97115 3.79519 10.8474 1.90519 15.4347C0.00518775 20.012 -0.484812 25.01 0.485188 29.8778C1.44519 34.7456 3.81519 39.1727 7.31519 42.6783C10.8152 46.1839 15.2352 48.5477 20.0952 49.5192C21.7152 49.8397 23.3452 50 24.9752 50C28.2252 50 31.4552 49.359 34.5052 48.097C39.0852 46.1939 42.9552 43.0088 45.7052 38.8922C48.4652 34.7656 49.9152 29.9579 49.9152 25C49.9152 18.3193 47.3152 12.0493 42.6052 7.32172ZM43.9652 32.8826C42.9252 35.3966 41.4252 37.6502 39.5052 39.5633C37.5852 41.4864 35.3452 42.9888 32.8352 44.0305C30.3252 45.0721 27.6752 45.603 24.9552 45.603C20.8752 45.603 16.9252 44.401 13.5352 42.1274C10.1352 39.8538 7.51519 36.6587 5.95519 32.8826C4.39519 29.1066 3.99519 24.99 4.78519 20.9836C5.58519 16.9671 7.52519 13.3213 10.4152 10.4367C13.3052 7.54207 16.9452 5.58894 20.9452 4.79768C22.2852 4.52724 23.6252 4.39704 24.9752 4.39704C27.6552 4.39704 30.3152 4.92789 32.8252 5.96955C36.6052 7.53205 39.7952 10.1563 42.0652 13.5517C44.3252 16.9571 45.5252 20.9135 45.5252 25C45.5252 27.7244 44.9952 30.3686 43.9652 32.8826Z" fill="#3778C2"/>
<path d="M37.1052 34.365C37.2052 34.6354 37.2652 34.9059 37.2652 35.1863C37.2652 35.4668 37.2052 35.7472 37.1052 36.0076C36.9952 36.268 36.8352 36.4984 36.6352 36.6987C36.4352 36.8991 36.2052 37.0593 35.9452 37.1595C35.6852 37.2696 35.4152 37.3197 35.1352 37.3197C34.5552 37.3197 34.0252 37.0994 33.6252 36.6987L24.9552 28.0249L16.2952 36.6987C16.0952 36.8991 15.8652 37.0593 15.6052 37.1595C15.0852 37.3798 14.4952 37.3798 13.9752 37.1595C13.7152 37.0593 13.4752 36.8991 13.2752 36.6987C13.0852 36.4984 12.9252 36.268 12.8152 36.0076C12.7052 35.7472 12.6552 35.4668 12.6552 35.1863C12.6552 34.9059 12.7052 34.6354 12.8152 34.375C12.9252 34.1046 13.0852 33.8742 13.2752 33.6739L21.9452 25L13.2752 16.3261C13.0852 16.1258 12.9252 15.8954 12.8152 15.635C12.7052 15.3746 12.6552 15.0942 12.6552 14.8137C12.6552 14.5333 12.7052 14.2528 12.8152 13.9924C12.9252 13.732 13.0852 13.5016 13.2752 13.3013C13.4852 13.101 13.7152 12.9507 13.9752 12.8406C14.4952 12.6202 15.0852 12.6202 15.6052 12.8406C15.8652 12.9507 16.0952 13.101 16.2952 13.3013L24.9552 21.9752L33.6252 13.3013C34.4252 12.49 35.8352 12.49 36.6352 13.3013C37.0452 13.7019 37.2652 14.2428 37.2652 14.8137C37.2652 15.3846 37.0452 15.9155 36.6352 16.3261L27.9752 25L36.6352 33.6739C36.8352 33.8742 36.9952 34.1046 37.1052 34.365Z" fill="#3778C2"/>
</svg>
