<svg width="50" height="50" viewBox="0 0 50 50" fill="none" xmlns="http://www.w3.org/2000/svg">
<path d="M39.2285 17.2234C39.2285 17.5135 39.1685 17.8035 39.0585 18.0636C38.9485 18.3236 38.7885 18.5737 38.5785 18.7837L21.0785 36.3672L10.1785 25.4851C9.76851 25.075 9.53851 24.5149 9.53851 23.9248C9.53851 23.3346 9.76851 22.7845 10.1785 22.3644C10.3985 22.1544 10.6285 22.0044 10.8985 21.8843C11.4485 21.6643 12.0485 21.6643 12.5885 21.8843C12.8585 22.0044 13.0985 22.1544 13.3085 22.3644L21.0785 30.126L35.4785 15.6631C35.6885 15.4531 35.9285 15.303 36.1985 15.193C36.7285 14.963 37.3585 14.963 37.8885 15.193C38.1585 15.303 38.3985 15.4531 38.6085 15.6631C38.8185 15.8832 38.9785 16.1132 39.0885 16.3832C39.1685 16.6533 39.2285 16.9334 39.2285 17.2234Z" fill="#3778C2"/>
<path d="M42.6685 7.32146C37.9585 2.60052 31.6685 0 24.9985 0C20.0385 0 15.2385 1.46029 11.1185 4.22084C6.98852 6.97139 3.79852 10.8522 1.89852 15.4331C0.00851917 20.024 -0.481481 25.015 0.478519 29.876C1.44852 34.7469 3.80852 39.1678 7.31852 42.6785C10.8285 46.1892 15.2485 48.5497 20.1185 49.5199C21.7385 49.84 23.3685 50 25.0085 50C28.2585 50 31.5085 49.3599 34.5585 48.0996C39.1385 46.1992 43.0185 43.0086 45.7785 38.8878C48.5485 34.767 49.9985 29.966 49.9985 25.005C49.9985 18.3237 47.3985 12.0424 42.6685 7.32146ZM39.5885 39.5879C35.6885 43.4887 30.5085 45.6391 24.9985 45.6391C20.9085 45.6391 16.9485 44.4289 13.5485 42.1584C10.1385 39.888 7.51852 36.6873 5.94852 32.9066C4.37852 29.1258 3.97852 25.005 4.76852 20.9842C5.56852 16.9734 7.51852 13.3227 10.4185 10.4321C13.3085 7.53151 16.9585 5.58112 20.9785 4.78096C22.3185 4.5209 23.6685 4.38088 25.0185 4.38088C27.7085 4.38088 30.3685 4.91098 32.8885 5.95119C36.6685 7.5215 39.8685 10.152 42.1385 13.5527C44.4085 16.9534 45.6185 20.9242 45.6185 25.015C45.6285 30.5161 43.4785 35.6971 39.5885 39.5879Z" fill="#3778C2"/>
</svg>
