<svg width="41" height="50" viewBox="0 0 41 50" fill="none" xmlns="http://www.w3.org/2000/svg">
<path d="M40.8176 12.3578C40.8176 11.3695 40.618 10.4013 40.2187 9.53284C39.1107 7.11719 37.0744 5.80954 34.3293 5.75963C34.0199 5.75963 33.7104 5.74965 33.371 5.74965C32.7122 5.72969 31.9336 5.72969 31.165 5.73967C30.8456 5.74965 30.5261 5.75963 30.2067 5.75963H27.6713C26.6731 1.80675 23.2692 0 20.4543 0H20.1149C16.691 0.179677 14.0059 2.42563 13.1874 5.75963H6.50937C3.42493 5.7796 0.899471 7.74606 0.210711 10.6408C-0.52796 13.7353 0.709812 16.65 3.385 18.0775C3.46485 18.1174 3.4948 18.1374 3.50478 18.1374C3.50478 18.1573 3.51476 18.1972 3.51476 18.337C3.50478 22.0104 3.50478 25.7337 3.50478 29.3871V32.4316C3.50478 36.095 3.50478 39.7884 3.4948 43.4518C3.4948 45.2386 4.1636 46.8856 5.3814 48.0934C6.61918 49.3212 8.24625 50 10.0131 50C11.1111 50 12.259 50 13.5068 49.99C14.9442 49.99 16.5114 49.98 18.2482 49.98H23.1694C24.8064 50 26.4435 50 28.0905 50H30.8655C34.4591 49.98 37.3039 47.1451 37.3339 43.5616C37.3439 42.763 37.3439 41.9744 37.3439 41.1859L37.3339 36.6141C37.3439 30.4652 37.3439 24.3362 37.3339 18.1374C39.7396 16.8896 40.8176 14.5937 40.8176 12.3578ZM20.3944 4.442C21.3626 4.442 22.3209 4.96107 22.8699 5.72969H17.9687C18.388 5.14075 19.1666 4.47195 20.2946 4.442H20.3944ZM32.8819 22.6692C32.8819 29.4769 32.8819 36.2747 32.8719 43.0825C32.8719 43.5217 32.832 43.9309 32.7621 44.2703C32.5924 44.9391 31.7439 45.5181 31.165 45.5181C30.1468 45.528 29.0987 45.538 28.0007 45.538C26.9925 45.548 25.9444 45.548 24.8464 45.568H10.4623C10.2626 45.568 10.1129 45.568 9.93321 45.538C8.72538 45.4781 7.96675 44.6995 7.96675 43.5017C7.95677 41.3156 7.95677 39.0697 7.95677 36.9136V18.906H32.8819V22.6692ZM35.6469 13.9748C35.2876 14.2943 34.8484 14.444 34.2494 14.444H6.5493C5.58104 14.444 4.84237 13.9449 4.59282 13.1064C4.2734 12.0683 4.53293 11.1499 5.2716 10.581C5.63095 10.3214 6.06018 10.2016 6.60919 10.2016H34.2694C35.2377 10.2216 35.9164 10.6608 36.2359 11.4893C36.3357 11.7688 36.3856 12.0483 36.3856 12.3278C36.3856 12.9567 36.136 13.5556 35.6469 13.9748Z" fill="#ff1744"/>
<path d="M29.6477 25.9134V40.3574C29.6477 41.3456 29.1586 42.1043 28.2802 42.4936C27.9807 42.6133 27.6812 42.6732 27.3918 42.6732C26.8527 42.6732 26.3337 42.4636 25.8945 42.0843C25.2556 41.4954 25.1857 40.7467 25.1857 40.2276V25.8835C25.1857 24.5059 26.1041 23.5477 27.4217 23.5477H27.5415C28.7693 23.6076 29.6377 24.5958 29.6477 25.9134Z" fill="#ff1744"/>
<path d="M22.6503 25.9333V40.3274C22.6503 41.6849 21.702 42.6732 20.4043 42.6732C19.0967 42.6432 18.1883 41.665 18.1883 40.3074V25.9133C18.1883 24.5757 19.1566 23.5176 20.3944 23.5176C20.7637 23.5176 21.123 23.6075 21.4524 23.7872C22.241 24.2164 22.6503 24.965 22.6503 25.9333Z" fill="#ff1744"/>
<path d="M15.6429 40.1079C15.6429 40.6768 15.4732 41.2857 15.1937 41.7449C14.8443 42.3239 14.1855 42.6732 13.4369 42.6732C13.1474 42.6732 12.8978 42.6333 12.6782 42.5535C11.7699 42.2241 11.2009 41.3955 11.1909 40.4073V25.9134C11.1909 24.5359 12.1392 23.5477 13.4369 23.5477C14.4451 23.5477 15.3135 24.2165 15.5531 25.1747C15.6229 25.4343 15.6529 25.6938 15.6529 26.0132V27.8599C15.6529 31.8926 15.6629 36.0252 15.6429 40.1079Z" fill="#ff1744"/>
</svg>
