<svg width="45" height="50" viewBox="0 0 45 50" fill="none" xmlns="http://www.w3.org/2000/svg">
<path d="M30.31 47.9121C30.31 49.0765 29.34 50 28.1 50H5.02C2.25 50 0 47.8016 0 45.1114V4.88858C0 2.18832 2.25 0 5.02 0H28.1C29.32 0 30.31 0.9737 30.31 2.1582C30.31 3.35274 29.32 4.3164 28.1 4.3164H5.02C4.68 4.3164 4.42 4.57739 4.42 4.91869V45.1516C4.42 45.4929 4.68 45.7539 5.02 45.7539H28.1C29.32 45.7539 30.31 46.7175 30.31 47.9121Z" fill="#3778C2"/>
<path d="M44.58 25.3062C44.56 25.8583 44.31 26.3903 43.87 26.7918L31.58 38.7673C31.18 39.1789 30.58 39.4198 29.98 39.4198C29.41 39.4198 28.84 39.1889 28.39 38.7673C27.51 37.884 27.51 36.4987 28.39 35.6153L37.07 27.1532H12.44C11.18 27.1532 10.16 26.1594 10.16 24.9247C10.16 23.7001 11.18 22.6962 12.44 22.6962H36.4L27.82 14.3545C26.94 13.4611 26.94 12.0859 27.82 11.1925C28.73 10.3192 30.18 10.3192 31.05 11.1925L43.69 23.5294C43.79 23.5896 43.83 23.6298 43.94 23.7402V23.7502C44.37 24.1919 44.59 24.7541 44.58 25.3062Z" fill="#3778C2"/>
</svg>
