<svg width="78" height="50" viewBox="0 0 78 50" fill="none" xmlns="http://www.w3.org/2000/svg">
<path d="M76.651 22.6999C74.631 19.0619 72.491 15.2335 70.271 11.3149C68.661 8.46863 66.771 5.15133 64.881 1.9543C64.391 1.11245 63.571 0 62.151 0C61.541 0 60.891 0.200441 60.101 0.641411C58.621 1.4532 57.051 2.41531 55.171 3.65805C53.761 4.58008 53.331 6.01323 53.961 7.67689C54.001 7.79715 54.051 7.91742 54.101 8.02766C53.951 8.04771 53.801 8.0477 53.631 8.0477C53.071 8.0477 52.491 7.94748 51.881 7.83724H51.861C51.161 7.71698 50.451 7.57667 49.751 7.44638C47.971 7.10563 46.121 6.76488 44.271 6.56444C43.411 6.47424 42.511 6.42413 41.581 6.42413C39.011 6.42413 36.491 6.78493 34.361 7.1357C32.431 7.4564 30.261 7.95751 28.851 9.88174C26.861 9.62117 24.991 9.36059 23.391 8.30828L23.231 8.20806C23.211 8.18801 23.181 8.17799 23.161 8.15795C23.191 8.08779 23.221 8.01764 23.251 7.95751C24.211 5.6825 23.291 4.45981 22.361 3.83844C20.601 2.66586 18.761 1.52335 16.891 0.450992C16.401 0.170375 15.881 0.0200441 15.341 0.0200441C14.321 0.0200441 13.351 0.541191 12.691 1.44318C12.421 1.81399 12.201 2.19483 11.961 2.61575L11.561 3.32732C9.82098 6.38405 8.03098 9.55101 6.28098 12.6578C4.44098 15.915 2.49098 19.3927 0.55098 22.8703C-0.48902 24.7344 -0.0390204 26.5183 1.75098 27.6308C2.74098 28.2522 3.77098 28.8435 4.75098 29.4147C5.41098 29.7956 6.08098 30.1964 6.75098 30.5873C7.26098 30.898 7.78098 31.0483 8.31098 31.0483C8.86098 31.0483 9.38098 30.8679 9.82098 30.5372C10.381 30.1163 10.921 29.555 11.391 28.8835C11.471 28.9838 11.551 29.084 11.631 29.1942C11.851 29.4748 12.081 29.7655 12.361 30.0561C13.011 30.7276 12.961 30.7877 12.691 31.0884C12.341 31.4893 12.281 31.9904 12.241 32.3211L12.221 32.4314C11.811 35.2876 13.331 37.733 16.081 38.635C16.171 38.6651 16.231 38.6951 16.271 38.7052C16.271 38.7152 16.271 38.7152 16.271 38.7252C16.701 41.5414 18.631 43.3153 21.541 43.6059C21.571 43.616 21.611 43.636 21.651 43.656C22.731 45.8509 24.481 46.9633 26.861 46.9633C26.971 46.9633 27.081 46.9633 27.201 46.9633C28.401 48.9276 30.041 50 31.831 50C33.281 50 34.721 49.2884 35.991 47.9455C36.001 47.9455 36.011 47.9555 36.031 47.9555C37.491 48.3865 38.721 48.7272 40.001 48.9978C40.821 49.1782 41.621 49.2684 42.361 49.2684C44.791 49.2684 46.851 48.3263 48.491 46.4522C48.641 46.2818 49.101 46.0613 49.691 45.9711C51.891 45.6404 53.381 44.3476 53.981 42.2329C54.021 42.0926 54.051 42.0325 54.071 42.0124C54.091 42.0024 54.141 41.9924 54.241 41.9723C56.541 41.6416 58.121 40.2285 58.671 37.9936C58.671 37.9836 58.671 37.9735 58.671 37.9735C58.701 37.9735 58.751 37.9635 58.801 37.9535C60.411 37.7731 61.821 37.0215 62.681 35.889C63.421 34.8968 63.711 33.6641 63.491 32.4013C63.291 31.2488 63.651 30.8579 64.651 30.1263C65.031 29.8457 65.341 29.535 65.641 29.2443C65.731 29.1541 65.811 29.074 65.901 28.9838C65.991 29.1241 66.091 29.2744 66.191 29.4047C67.141 30.7376 68.221 31.0182 68.961 31.0182C69.571 31.0182 70.201 30.8278 70.831 30.467C72.611 29.4448 74.041 28.5929 75.331 27.7811C77.381 26.4582 77.811 24.8046 76.651 22.6999ZM7.74098 26.0774C6.75098 25.456 5.81098 24.8647 4.90098 24.2534C6.48098 21.3971 8.05098 18.6109 9.79098 15.5342C11.621 12.287 13.461 9.05993 15.301 5.82281L15.801 4.93085L18.481 6.60453L18.771 6.78493L15.301 12.9184L7.83098 26.1375C7.80098 26.1175 7.77098 26.0974 7.74098 26.0774ZM19.241 32.0906C18.901 32.6819 18.491 33.3133 17.971 34.0048C17.801 34.2353 17.611 34.3857 17.491 34.3857C17.451 34.3857 17.391 34.3656 17.331 34.3456C16.881 34.1251 16.611 33.6841 16.601 33.5238C17.011 32.7621 17.571 32.0505 18.161 31.3089C18.251 31.1986 18.341 31.0784 18.431 30.9681H18.441C18.901 30.9982 19.131 31.3389 19.191 31.4392C19.251 31.5294 19.391 31.82 19.241 32.0906ZM21.941 38.7853C21.721 39.076 21.611 39.1161 21.601 39.1161C21.591 39.1161 21.461 39.106 21.171 38.9357C20.921 38.7853 20.541 38.4646 20.771 38.0537C21.121 37.4023 21.561 36.7308 22.151 35.9391C22.851 35.007 23.571 34.0649 24.271 33.1529C24.711 32.5817 25.161 32.0004 25.601 31.4291C25.861 31.0884 25.971 31.0483 25.981 31.0383C25.981 31.0383 26.021 31.0383 26.121 31.0784C26.551 31.2588 26.801 31.6196 26.841 32.0806V32.0906C26.801 32.2209 26.731 32.4113 26.661 32.5015C25.251 34.3957 23.751 36.4001 21.941 38.7853ZM30.901 36.7609C29.571 38.645 28.121 40.5091 26.721 42.3131L26.611 42.4534C26.601 42.4634 26.581 42.4734 26.571 42.4734C26.261 42.3832 25.921 42.0826 25.761 41.7519C25.721 41.6617 25.621 41.4211 25.721 41.3009C26.411 40.4289 27.081 39.527 27.731 38.655C28.371 37.7931 29.041 36.9112 29.711 36.0493C29.871 35.8489 29.961 35.7687 30.001 35.7386C30.051 35.7587 30.171 35.7988 30.391 35.9391C30.691 36.1295 30.871 36.4201 30.911 36.6105C30.911 36.6607 30.921 36.7308 30.901 36.7609ZM34.401 42.4033C33.661 43.4957 33.021 44.3776 32.391 45.1794C32.211 45.4199 32.071 45.5001 32.011 45.5001C31.981 45.5001 31.861 45.4901 31.621 45.3398C31.301 45.1393 31.111 44.8286 31.061 44.6182C31.051 44.5881 31.041 44.4979 31.061 44.4578C31.821 43.3454 32.711 42.1828 33.781 40.92C33.931 40.9601 34.191 41.0904 34.381 41.351C34.471 41.4712 34.551 41.6516 34.641 41.8521C34.571 42.0826 34.491 42.273 34.401 42.4033ZM42.831 44.7986C42.741 44.7986 42.651 44.7885 42.561 44.7785C41.371 44.6382 40.191 44.4077 38.941 44.1672C38.861 44.1571 38.781 44.1371 38.701 44.1271C38.981 43.5358 39.141 42.8743 39.161 42.2029C40.311 42.7741 41.461 43.3554 42.581 43.9066L43.831 44.528C43.521 44.7084 43.191 44.7986 42.831 44.7986ZM59.001 33.0828C58.841 33.2932 58.611 33.5538 58.351 33.5538C58.241 33.5538 58.121 33.5137 57.981 33.4436C56.661 32.7821 55.341 32.0305 54.061 31.2888L53.551 30.9982C52.381 30.3367 51.201 29.6452 50.061 28.9838C48.971 28.3524 47.891 27.721 46.801 27.0896C46.341 26.829 45.901 26.6987 45.471 26.6987C44.761 26.6987 44.141 27.0796 43.781 27.741C43.161 28.8635 43.521 30.1764 44.651 30.8579C46.391 31.9202 48.141 32.9725 49.891 34.0249C50.921 34.6462 51.951 35.2676 52.981 35.889C53.181 36.0092 53.381 36.1395 53.591 36.2798C53.761 36.3901 53.931 36.5003 54.101 36.6105C54.251 36.7007 54.301 36.7609 54.311 36.7809C54.311 36.7809 54.311 36.811 54.291 36.8511C54.141 37.4123 53.961 37.4624 53.831 37.5125C53.661 37.5626 53.491 37.5827 53.321 37.5827C52.971 37.5827 52.611 37.4825 52.221 37.252L51.431 36.811C48.951 35.4179 46.391 33.9848 43.851 32.6017C43.631 32.4815 43.031 32.1908 42.391 32.1908C42.161 32.1908 41.941 32.2309 41.741 32.3011C41.031 32.5717 40.401 33.4235 40.351 34.1952C40.301 34.997 40.861 35.8589 41.431 36.2097C42.631 36.9513 43.871 37.6729 45.071 38.3544C45.531 38.625 45.991 38.8856 46.461 39.1561C47.291 39.6472 48.391 40.2886 49.491 40.93C49.551 40.9701 49.611 41.0002 49.671 41.0303C49.621 41.2307 49.571 41.3209 49.541 41.351C49.261 41.371 48.961 41.3911 48.651 41.3911C48.161 41.3911 47.781 41.3309 47.501 41.2207C46.121 40.6695 44.731 39.998 43.391 39.3566C42.771 39.0559 42.151 38.7653 41.531 38.4746C41.261 38.3544 40.991 38.2441 40.741 38.1439C40.531 38.0537 40.321 37.9735 40.131 37.8934C39.811 37.7531 39.501 37.6829 39.201 37.6829C38.851 37.6829 38.261 37.7831 37.761 38.3444C37.161 37.6729 36.411 37.1317 35.551 36.801C35.511 36.7809 35.471 36.7709 35.441 36.7609C35.441 36.7408 35.441 36.7308 35.441 36.7108C35.221 34.1251 33.761 32.261 31.331 31.4692C31.331 31.4392 31.321 31.4191 31.321 31.3891L31.301 31.2688C30.811 28.4927 28.641 26.6286 25.891 26.6286C25.731 26.6286 25.571 26.6386 25.401 26.6486C24.221 26.7488 23.211 27.2399 22.351 28.162C20.871 26.7689 19.441 26.4482 18.431 26.4482C17.531 26.4482 16.631 26.6987 15.801 27.1898C15.781 27.1598 15.751 27.1297 15.721 27.0996C15.081 26.368 14.421 25.6164 13.801 24.8547C15.801 21.2868 17.841 17.6689 19.811 14.1612L20.471 12.9886C20.641 12.6979 20.811 12.3973 20.991 12.0866C22.491 13.0086 24.121 13.63 25.921 13.9707C25.671 14.3416 25.431 14.7124 25.191 15.0832C24.681 15.8849 24.141 16.7468 23.641 17.6288C23.401 18.0497 23.221 18.5408 23.071 19.1321C22.601 21.0263 23.091 22.1788 23.601 22.8102C24.091 23.4316 25.081 24.1832 26.971 24.1832H27.071C29.431 24.1531 31.551 23.3614 33.371 21.818C34.411 20.9361 35.351 19.9539 36.261 18.9918L36.441 18.8114C36.661 18.5809 37.311 18.3303 37.931 18.3303C38.261 18.3303 38.421 18.4005 38.471 18.4205C45.141 21.8581 51.671 26.1575 57.871 31.1986C58.281 31.5394 58.621 31.8601 58.891 32.1708C59.301 32.6719 59.091 32.9625 59.001 33.0828ZM60.571 27.6107C60.551 27.6007 60.521 27.5807 60.481 27.5506C59.561 26.8892 58.641 26.2177 57.721 25.5462C54.681 23.3313 51.541 21.0463 48.341 18.9517C46.161 17.5286 43.841 16.3059 41.581 15.1132C40.811 14.7124 40.021 14.2914 39.261 13.8805C38.951 13.7202 38.591 13.63 38.141 13.63C37.931 13.63 37.731 13.65 37.551 13.6601H37.491C37.161 13.6901 36.881 13.7903 36.651 13.8705C36.541 13.9106 36.451 13.9407 36.371 13.9607C34.701 14.3516 33.361 15.2135 32.281 16.5865C30.921 18.3303 29.391 19.3325 27.651 19.6232C27.731 19.4528 27.811 19.2924 27.911 19.1521C28.951 17.6087 30.041 16.0553 31.101 14.552C31.531 13.9407 31.961 13.3293 32.391 12.718C32.771 12.1668 33.271 11.8661 33.981 11.7358C36.301 11.3249 39.051 10.894 41.801 10.894C42.491 10.894 43.171 10.924 43.821 10.9741C45.911 11.1445 48.051 11.6055 50.121 12.0565L50.461 12.1267C51.561 12.3672 52.541 12.4775 53.461 12.4775C54.481 12.4775 55.431 12.3371 56.341 12.0465C58.521 15.9451 60.911 20.1443 63.621 24.8948C62.651 25.7667 61.601 26.6887 60.571 27.6107ZM69.471 26.0974C69.351 25.897 69.231 25.6965 69.121 25.4961L68.501 24.3937C65.281 18.6611 61.951 12.738 58.681 6.91521C58.651 6.85508 58.611 6.78493 58.561 6.70475C58.641 6.65464 58.731 6.60453 58.811 6.55442C59.601 6.07336 60.401 5.60233 61.231 5.11124L61.441 4.98096L66.111 13.1389L72.501 24.2934L69.471 26.0974Z" fill="#3778C2"/>
</svg>
