<svg width="70" height="50" viewBox="0 0 70 50" fill="none" xmlns="http://www.w3.org/2000/svg">
<path d="M69.73 5.45621C69.69 5.34444 69.65 5.18187 69.6 5.00914L69.59 4.95834C69.49 4.56208 69.35 4.16582 69.19 3.78988C68.71 2.64174 67.92 1.68665 66.9 1.01605C65.91 0.365779 64.76 0.0203211 63.59 0.0203211L63.48 0.0304816C61.79 0.0101605 60.1 0 58.42 0C57.36 0 56.3 0.0101605 55.26 0.0101605H6.96C3.2 0.0101605 1.08 1.64601 0.09 5.31396L0.08 5.3546L0.04 5.42573L0 5.52733V44.4727L0.01 44.5032C0.09 44.7165 0.16 44.9401 0.22 45.1636L0.23 45.1737L0.24 45.2245C0.39 45.7529 0.59 46.2812 0.85 46.7689C1.38 47.7545 2.16 48.5775 3.12 49.1465C4.04 49.6952 5.09 49.9797 6.15 49.9797H6.27C7.77 49.9898 9.27 50 10.77 50C11.83 50 12.89 50 13.94 49.9898H62.93C66.54 49.9898 68.74 48.2422 69.67 44.6556L69.68 44.6251L69.7 44.5946L69.74 44.5133L69.75 44.4828V5.55781L69.73 5.45621ZM62.23 4.54176L61.71 5.05995L60 6.76692C58.26 8.51453 56.52 10.2621 54.79 12.0098C50.7 16.1654 46.62 20.3312 42.53 24.4971L36.69 30.4511C36.49 30.7153 36.22 30.9388 35.9 31.1014C35.59 31.2741 35.25 31.3757 34.9 31.4062H34.85C34.49 31.3656 34.15 31.264 33.85 31.1014C33.54 30.9388 33.26 30.7051 33.03 30.4308L27.09 24.365L8.15 5.05995L7.64 4.54176H62.23ZM4.93 41.5972L4.42 42.1154V7.81345L4.93 8.33164L21.22 24.7612L21.44 24.9746L21.22 25.188L4.93 41.5972ZM7.62 45.4582L8.14 44.9401L24.47 28.4698L24.68 28.2565L25.32 28.9067C25.89 29.4859 26.48 30.0752 27.06 30.6645L28.24 31.8838C28.87 32.5239 29.49 33.164 30.12 33.7939C30.74 34.4544 31.47 34.9624 32.3 35.318C33.12 35.6736 33.98 35.8565 34.88 35.8565C35.77 35.8565 36.64 35.6736 37.46 35.318C38.28 34.9624 39.01 34.4544 39.63 33.8041C40.74 32.6763 41.84 31.5586 42.93 30.4308L44.86 28.4698L45.07 28.2666L45.28 28.4698L61.62 44.9401L62.13 45.4582H7.62ZM65.32 42.1459L64.81 41.6379L48.52 25.2185L48.31 25.0051L48.52 24.7917L64.81 8.38244L65.32 7.87442V42.1459Z" fill="#3778C2"/>
</svg>
