<svg width="50" height="50" viewBox="0 0 50 50" fill="none" xmlns="http://www.w3.org/2000/svg">
<path d="M47.3047 18.5808H46.099C45.4157 18.5707 44.7224 18.5808 44.009 18.5506C43.5971 17.6966 43.2756 16.9028 43.0344 16.1894C43.3559 15.8478 43.6875 15.5162 44.0191 15.1846L45.4358 13.7779C46.5511 12.6626 46.5612 11.2861 45.466 10.1909C43.6172 8.31198 41.7182 6.41296 39.8392 4.56418C38.734 3.45893 37.4278 3.46898 36.2622 4.58428C35.4986 5.32781 34.6647 6.15172 33.8608 6.98568C33.0369 6.52349 32.2532 6.19191 31.4896 5.99096C31.5197 4.9259 31.5097 3.77041 31.4795 2.62497C31.4393 0.946998 30.4949 0.0226074 28.8571 0.0226074C26.1844 -0.0075358 23.5619 -0.0075358 21.0902 0.0226074C19.4825 0.0226074 18.518 0.997237 18.518 2.62497C18.518 2.97664 18.518 3.33836 18.5079 3.71012C18.5079 4.4637 18.4979 5.24743 18.518 6.01105C17.7342 6.21201 16.9505 6.53354 16.1467 6.99573C15.3831 6.19191 14.5893 5.39814 13.8759 4.6948C13.464 4.28284 12.8109 3.73022 11.9568 3.73022C11.0927 3.73022 10.4496 4.28284 10.0276 4.6948L4.66215 10.0603C3.42627 11.3062 3.40618 12.5722 4.60186 13.8081C4.80281 14.0392 5.02386 14.2502 5.24491 14.4612L5.52625 14.7425C6.00854 15.2148 6.51093 15.7172 6.94298 16.1693C6.6516 16.9631 6.32002 17.7568 5.9583 18.5205C5.26501 18.5506 4.54157 18.5406 3.83823 18.5506H2.72293C0.944486 18.5506 0 19.4851 0 21.2434V28.8495C0 30.5677 0.904296 31.4921 2.66265 31.5423H4.12962C4.71238 31.5524 5.32529 31.5423 5.96835 31.5825C6.15926 32.0347 6.34012 32.4868 6.53102 32.9591L6.82241 33.6624C6.8425 33.7528 6.88269 33.8433 6.91284 33.9236C6.79226 34.0442 6.68174 34.1547 6.60136 34.2552C5.91811 34.8983 5.24491 35.5715 4.57172 36.2447C3.37604 37.4403 3.37604 38.7265 4.56167 39.9623C5.84778 41.2685 7.0937 42.5144 8.30947 43.7202L10.0678 45.4584C11.2133 46.6139 12.5094 46.624 13.7051 45.4785C14.5993 44.6144 15.3429 43.8709 16.0764 43.1173C16.7998 43.5494 17.6137 43.8809 18.4376 44.0718C18.4476 44.0718 18.4476 44.0718 18.4476 44.0718C18.4275 45.1871 18.4275 46.3426 18.4577 47.3976C18.4577 49.1058 19.362 50 21.0902 50H28.7566C30.4949 50 31.4192 49.0857 31.4192 47.3374V46.001C31.4192 45.358 31.4192 44.7149 31.4494 44.0417C31.9618 43.8006 32.5144 43.5896 33.0972 43.3685L33.5996 43.1776C33.6699 43.1475 33.7503 43.1173 33.8206 43.0872C33.9111 43.1876 34.0116 43.2781 34.0919 43.3685C34.735 44.0417 35.4182 44.7249 36.0914 45.3981C37.3373 46.6441 38.6034 46.6541 39.8794 45.4283L45.3052 40.0025C46.4908 38.8169 46.5109 37.5006 45.3454 36.2949C44.431 35.3404 43.6373 34.5767 42.9641 33.9337C43.3157 33.1801 43.6373 32.4165 43.9186 31.6127C45.0942 31.6428 46.2798 31.6428 47.2746 31.6026C49.4248 31.5423 49.8769 30.1557 49.8769 29.0304C49.9473 26.4682 49.9472 23.7754 49.9472 21.1831C49.9472 19.475 49.0329 18.5808 47.3047 18.5808ZM43.2052 26.9505C40.8942 26.8299 40.3718 28.8294 40.1708 29.583V29.6031C39.9096 30.7184 39.4976 31.693 38.955 32.527C38.5732 33.1399 37.4177 34.9887 39.1761 36.5662C39.8091 37.1691 40.4321 37.7619 41.0349 38.3647L38.3321 41.1178C37.7393 40.525 37.1163 39.902 36.5235 39.259C34.9058 37.4604 33.0671 38.636 32.4943 38.9977C31.4192 39.6307 30.4547 40.0427 29.5303 40.2537C28.3346 40.525 26.7671 41.1279 26.8274 43.3183C26.8576 44.1623 26.8576 44.9962 26.8274 45.8603V45.9206H23.15C23.15 45.9106 23.15 45.9106 23.15 45.9005V43.3384C23.1902 41.7709 22.3361 40.746 20.6179 40.3341C19.4624 40.0226 18.3471 39.5504 17.2118 38.8973C16.5486 38.5255 15.9759 38.3446 15.4032 38.3446C14.8706 38.3446 14.097 38.5255 13.4137 39.3193C12.841 39.9523 12.2783 40.5451 11.6554 41.1781L8.94248 38.4652C9.50515 37.9327 10.0879 37.37 10.6405 36.8174C12.0271 35.481 11.9467 34.5968 11.2334 33.15C10.6204 31.8136 10.0678 30.4371 9.58553 29.0605C9.09319 27.6338 8.17885 26.9606 6.77217 27.0108C5.92816 27.0409 5.03391 27.0209 4.15976 27.0409H4.07938L4.09947 23.2731H6.72193C8.50038 23.2731 9.09319 22.5697 9.60563 21.1731C10.1482 19.7162 10.7109 18.3497 11.3338 17.0033C11.9668 15.6569 11.786 14.5315 10.7913 13.587C10.4798 13.2856 10.1583 12.9741 9.84677 12.6727C9.52524 12.3612 9.20372 12.0497 8.90229 11.7584L11.6252 9.02537C12.218 9.61819 12.8209 10.2411 13.4137 10.9043C14.4486 12.0296 15.7749 12.1301 17.3524 11.1856C18.2768 10.6431 19.362 10.1909 20.638 9.82919C22.2859 9.39714 23.1198 8.4426 23.1198 7.00578V4.2527L26.8576 4.20246V4.2527C26.8576 5.16704 26.8576 6.0211 26.8274 6.9053C26.7671 9.09571 28.5556 9.61819 29.1284 9.77895C30.4949 10.201 31.8312 10.8239 33.0671 11.4469C34.3833 12.11 35.5187 11.9392 36.5436 10.9143L37.1464 10.2914C37.5685 9.85933 37.9905 9.41723 38.3321 9.02537L41.0651 11.7584L40.5325 12.2607C40.1005 12.6526 39.6684 13.0545 39.2565 13.4765C37.9603 14.7626 38.0407 15.6368 38.6637 16.9731C39.367 18.5004 39.9397 19.887 40.422 21.2233C40.8742 22.5396 41.7684 23.2128 43.1248 23.2128H45.8076L45.8578 26.9505H43.2052Z" fill="#3778C2"/>
<path d="M36.3426 24.7902C36.3426 25.3027 36.1517 25.795 35.81 26.217C35.4483 26.6491 34.9258 26.8902 34.333 26.8902C33.7804 26.8902 33.2278 26.6692 32.866 26.3075C32.4541 25.9055 32.2431 25.3931 32.2431 24.8405C32.2029 22.8912 31.5096 21.1932 30.1733 19.8267C28.9575 18.5707 27.5106 17.8473 25.8628 17.6865C23.7025 17.4755 21.904 18.0181 20.4069 19.3444C20.7183 19.6157 20.9494 19.9975 21.0499 20.4295C21.1805 20.952 21.07 21.575 20.7585 22.0372C20.4571 22.4994 19.9447 22.8309 19.4423 22.9013L17.3423 23.263C17.2016 23.3032 16.9705 23.3635 16.6993 23.3635C15.8151 23.4238 14.961 22.8912 14.6093 21.9869L14.5691 21.8664C14.2677 21.0424 14.0065 20.3391 13.8256 19.5654C13.484 18.5506 14.0567 17.375 15.1218 17.0234C15.7045 16.8425 16.3174 16.9229 16.8098 17.2042C18.538 15.265 20.6681 14.0995 23.18 13.6875C27.812 12.9339 32.5043 15.1243 34.8555 19.1434C35.6191 20.4396 36.1014 21.9367 36.2421 23.474C36.2923 23.8558 36.3426 24.2979 36.3426 24.7902Z" fill="#3778C2"/>
<path d="M36.3828 33.0294L36.2622 33.2203C35.8001 33.7528 35.147 34.0342 34.4939 33.9739C34.1824 33.9437 33.891 33.8432 33.6398 33.7026C31.9518 35.5815 29.8719 36.747 27.4202 37.1791C26.8375 37.3097 26.1743 37.37 25.4207 37.37C20.8792 37.37 16.6692 34.5968 14.941 30.4773C14.3783 29.0907 14.0869 27.6137 14.0869 26.0763C14.0869 24.9309 14.9611 24.0266 16.0864 24.0266C17.2218 24.0266 18.1361 24.951 18.1361 26.0763C18.1763 28.0156 18.8596 29.7136 20.1658 31.1002C21.3715 32.3461 22.8284 33.0696 24.4662 33.2303C26.6265 33.4413 28.4652 32.8887 29.9322 31.5825C29.6207 31.3012 29.3896 30.9294 29.2891 30.4873C29.1585 29.9648 29.259 29.3921 29.5705 28.9199C29.902 28.4275 30.3743 28.116 30.9068 28.0558C31.359 27.9754 31.8915 27.8849 32.424 27.7945L33.1876 27.6538C34.4336 27.4629 35.358 28.0055 35.7398 29.1409L35.9508 29.7538C36.1316 30.2462 36.3125 30.7485 36.4933 31.2911L36.5034 31.3112C36.7244 32.0447 36.5235 32.6978 36.3828 33.0294Z" fill="#3778C2"/>
</svg>
