<svg width="51" height="50" viewBox="0 0 51 50" fill="none" xmlns="http://www.w3.org/2000/svg">
<path d="M50.6823 47.2653L49.315 42.0918C48.8558 40.3571 48.4783 38.9286 48.366 38.5102C48.2334 38.0102 48.0803 37.5 47.9272 36.9796C47.7538 36.4082 47.5905 35.8367 47.4272 35.2653C47.1721 34.2245 46.8762 33.3776 46.2844 32.6225L46.1823 32.4796C45.6619 31.7959 45.0599 31.0816 44.2334 30.6429C42.1313 29.6633 40.366 28.8469 38.5293 28.051C37.0497 27.4082 35.4068 26.7449 33.5089 26.0102L32.4783 25.6225C32.366 25.5816 32.264 25.551 32.1926 25.551C31.9681 25.551 31.7232 25.6327 31.5191 25.7755C30.5089 26.5306 29.4579 27.3163 28.2334 27.8367C27.2742 28.2551 26.3048 28.4592 25.2742 28.4592C24.5089 28.4592 23.713 28.3163 22.9681 28.0612C21.815 27.6735 20.6926 27 19.3558 25.8776C19.1926 25.7551 18.8966 25.5102 18.4987 25.5102C18.315 25.5102 18.1313 25.551 17.8966 25.6225C17.5803 25.7449 17.264 25.8571 16.9579 25.9796C15.7538 26.4388 14.4579 26.9592 13.0089 27.5816C11.2232 28.3469 9.27419 29.2245 6.86602 30.3571C5.23337 31.1327 4.08031 32.449 3.5497 34.1633C2.99868 36.2041 2.43745 38.2143 1.84561 40.3469C1.8048 40.5408 1.72317 40.8163 1.62112 41.051C1.5497 41.3367 0.692553 44.6939 0.070104 47.2143C-0.103365 47.8878 0.0496958 48.5918 0.478267 49.1429C0.906839 49.6939 1.5497 50 2.25378 50C3.28439 50 4.18235 49.3061 4.42725 48.3061C5.315 44.7959 6.35582 40.6939 6.51908 40.1531C6.5599 40 6.61092 39.8469 6.65174 39.7041C6.69255 39.5714 6.73337 39.449 6.77419 39.3061C6.91704 38.7653 7.08031 38.2245 7.24357 37.6837C7.35582 37.2959 7.47827 36.9082 7.58031 36.5306C7.62112 36.3674 7.68235 36.2041 7.73337 36.0306C7.78439 35.8776 7.83541 35.7245 7.87623 35.5612C8.03949 35.0306 8.35582 34.6531 8.79459 34.449C10.1007 33.8571 11.4477 33.2653 12.815 32.6633L13.1721 32.5102V34.5714L12.9987 34.6327C10.4783 35.449 8.76398 37.5408 8.52929 40.102C8.40684 41.4592 8.42725 42.8061 8.43745 44.1122C8.44766 44.5918 8.45786 45.102 8.45786 45.5918C8.44765 46.6735 9.27419 47.5204 10.366 47.551C10.7028 47.5612 11.0089 47.5714 11.3048 47.5714C11.6211 47.5714 11.9375 47.5612 12.2334 47.551C12.8252 47.5306 13.366 47.2551 13.7232 46.7857C14.0803 46.3163 14.213 45.7143 14.0803 45.1225C13.9068 44.3776 13.3762 43.8163 12.6517 43.6225L12.4579 43.5714V43.3776C12.4579 42.5306 12.4579 41.6735 12.4681 40.8265C12.4783 39.4796 13.5701 38.3367 14.8966 38.2857H15.0089C16.4068 38.2857 17.5293 39.2959 17.6007 40.6225C17.6517 41.5204 17.6517 42.4082 17.6415 43.3469V43.551L17.4477 43.6123C16.4987 43.8367 15.8864 44.5918 15.8762 45.5408C15.8762 46.7041 16.7538 47.551 17.9783 47.5612H19.4068C20.8252 47.5612 21.6415 46.7449 21.6517 45.3265V44.4592C21.6517 43.3265 21.6619 42.1531 21.6517 40.9898C21.6211 38.398 20.4375 36.3776 18.2232 35.1327C17.9783 35 17.7028 34.8674 17.3558 34.7347L17.1926 34.6735V33.8265C17.1926 33.1429 17.1926 32.0918 17.1823 30.9388V30.7653L17.3456 30.7041C17.5191 30.6327 17.7028 30.551 17.9068 30.449L17.9579 30.4184H18.0191C18.1619 30.4184 18.2334 30.4694 18.2844 30.5C18.3048 30.5102 18.3252 30.5204 18.3456 30.5306C20.1619 31.7653 21.9068 32.4898 23.6926 32.7755C24.315 32.8571 24.9068 32.898 25.4885 32.898C27.0905 32.898 28.6823 32.5306 30.2028 31.8061C30.7538 31.551 31.264 31.2551 31.764 30.9694L32.6619 30.4592L32.7742 30.3878L32.8864 30.4388L33.9579 30.9082L35.2538 31.4592L35.4068 31.5306V31.6939L35.417 33.9592C35.417 36.2755 35.417 38.6633 35.4272 39.4082V39.5612L35.2844 39.6327C33.4375 40.5306 32.5395 42.7041 33.1926 44.6939C33.7334 46.3571 35.4068 47.5714 37.1823 47.5714C37.5395 47.5714 37.8864 47.5204 38.213 47.4286C40.4477 46.7857 41.7742 44.5714 41.2232 42.3878C40.9579 41.3265 40.3558 40.4796 39.417 39.8674L39.3048 39.7857V33.1939L39.6619 33.3571L39.9885 33.5L40.315 33.6429L40.7844 33.8571C40.917 33.898 41.0191 33.949 41.1619 34.051C41.2946 34.1122 41.5089 34.1939 41.713 34.2755C42.4272 34.5714 42.866 35.1122 43.1007 35.9898L43.3456 36.8265C43.6517 37.8776 43.9375 38.8571 44.213 39.8674C44.2946 40.1939 44.6619 41.5816 45.1007 43.2551C45.5599 44.9592 46.0803 46.9592 46.4579 48.3776C46.713 49.3367 47.5803 50 48.5701 50C49.7742 50 50.7538 49.0306 50.7538 47.8265C50.7538 47.6429 50.7334 47.449 50.6823 47.2653ZM37.1517 45.0408H37.1313C36.6926 45.0408 36.2742 44.8571 35.9579 44.5408C35.6415 44.2143 35.4681 43.7857 35.4681 43.3469C35.4885 42.4388 36.2436 41.7041 37.1517 41.7041C37.6313 41.7041 38.0599 41.8878 38.3762 42.2143C38.6824 42.5306 38.8456 42.949 38.8456 43.398C38.8252 44.3163 38.0803 45.0408 37.1517 45.0408Z" fill="#3778C2"/>
<path d="M34.0904 3.64286C31.7945 1.29592 28.7231 0 25.4476 0H25.4068C22.2537 0 19.2435 1.23469 16.917 3.46939C14.621 5.72449 13.3251 8.76531 13.2843 12.0408C13.2435 15.2653 14.468 18.3265 16.7537 20.6429C19.0088 22.9898 22.019 24.2755 25.2333 24.2755H25.3557C28.5802 24.2755 31.621 23.0306 33.9272 20.7653C36.2231 18.5102 37.519 15.4388 37.5598 12.1122C37.6006 8.92857 36.3762 5.91837 34.0904 3.64286ZM25.4476 19.9184H25.3557C21.0088 19.8776 17.6313 16.3878 17.6823 11.9898C17.7231 7.84694 21.2537 4.34694 25.3966 4.34694C27.5394 4.34694 29.4884 5.18367 30.9578 6.69388C32.4068 8.13265 33.2027 10.0612 33.2027 12.1122C33.1619 16.4184 29.6823 19.9184 25.4476 19.9184Z" fill="#3778C2"/>
</svg>
