<svg width="50" height="50" viewBox="0 0 50 50" fill="none" xmlns="http://www.w3.org/2000/svg">
<path d="M24.995 0C11.2147 0 0 11.2147 0 25.005C0 38.7853 11.2147 50 24.995 50C38.7753 50 49.99 38.7853 49.99 25.005C49.99 11.2147 38.7753 0 24.995 0ZM24.995 45.7005C13.5799 45.7005 4.29946 36.4101 4.29946 25.005C4.29946 13.5899 13.5799 4.30948 24.995 4.30948C36.4101 4.30948 45.6905 13.5899 45.6905 25.005C45.6905 36.4101 36.4101 45.7005 24.995 45.7005Z" fill="#3C78BD"/>
<path d="M25.5362 11.1947C27.9615 11.2248 30.2065 11.786 32.1307 13.3494C34.3456 15.1434 35.2676 18.1801 34.3356 20.7758C33.9347 21.8882 33.2432 22.8203 32.3813 23.622C31.2588 24.6744 30.1363 25.7467 28.9637 26.7489C27.701 27.8313 26.9694 29.1743 26.7188 30.8179C26.5484 31.8902 26.0373 32.4414 25.2255 32.5617C23.7623 32.7822 22.7801 31.9403 22.7501 30.4671C22.7 28.4026 23.4015 26.6487 24.8948 25.2256C26.0674 24.1131 27.2901 23.0608 28.4426 21.9283C28.9637 21.4072 29.4548 20.8058 29.7655 20.1444C30.7176 18.1199 29.5951 15.7046 27.3402 14.8728C25.917 14.3516 24.4839 14.4318 23.0808 14.9931C22.3191 15.3037 21.7479 15.855 21.367 16.5565C20.896 17.4184 20.5252 18.3304 20.1143 19.2224C19.984 19.503 19.8938 19.7936 19.7435 20.0642C19.2323 20.9562 18.3504 21.2969 17.3482 21.0163C16.4562 20.7758 15.7447 19.8638 15.7747 18.9417C15.8449 17.0175 16.6867 15.424 18.0197 14.0811C19.7535 12.3472 21.8882 11.4352 24.3336 11.2548C24.534 11.2348 24.7344 11.2147 24.9349 11.2047C25.1353 11.1947 25.3458 11.1947 25.5362 11.1947Z" fill="#3C78BD"/>
<path d="M22.4094 37.8031C22.3993 36.3499 23.4817 35.2274 24.9249 35.2174C26.3981 35.2074 27.5006 36.2798 27.5206 37.733C27.5407 39.2062 26.4683 40.2986 24.9951 40.3086C23.5018 40.3086 22.4294 39.2763 22.4094 37.8031Z" fill="#3C78BD"/>
</svg>
