<svg width="48" height="50" viewBox="0 0 48 50" fill="none" xmlns="http://www.w3.org/2000/svg">
<path d="M31.4099 3.99721C30.0044 2.84091 28.27 1.96372 25.9574 1.26595C23.2461 0.428628 20.2955 0 17.1954 0C15.9594 0 14.7034 0.0697767 13.4972 0.20933C10.0283 0.548246 7.24725 1.31579 4.74525 2.64155C1.47572 4.32616 -0.0294676 6.76834 0.000436702 10.327C0.110086 17.5439 0.110086 24.9003 0.100118 32.0076V40.7895C0.100118 42.7731 0.827789 44.3979 2.33297 45.7536C3.81822 47.1093 5.65235 48.0462 8.28393 48.8038C11.0351 49.6013 13.9358 50 16.9263 50C18.3118 50 19.8469 49.9103 21.5116 49.7209C23.276 49.5016 24.5618 49.2624 25.6683 48.9434C26.2564 48.7839 26.7748 48.3652 27.0937 47.7671C27.3928 47.1691 27.4227 46.5012 27.1835 45.933C26.8346 45.0359 25.9673 44.4378 25.0204 44.4378C24.821 44.4378 24.5818 44.4777 24.3525 44.5175C22.1197 45.1854 19.7871 45.5144 17.1954 45.5144C16.3581 45.5144 15.461 45.4745 14.5838 45.4147C11.6631 45.1854 9.34055 44.6172 7.29709 43.6404C6.71894 43.3513 6.17069 43.0223 5.61248 42.6037C4.80506 42.0255 4.46615 41.3776 4.52596 40.4805C4.5758 39.6332 4.56583 38.7859 4.56583 37.9585L4.55586 37.1312C4.55586 36.9418 4.55586 36.7424 4.54589 36.5431C6.42986 37.5598 8.52316 38.2576 11.0451 38.7161C12.5204 38.9852 14.0654 39.1547 15.7201 39.2245C16.9462 39.2245 17.943 38.2277 17.943 37.0016C17.943 36.4035 17.7237 35.8453 17.315 35.4366C16.8764 35.008 16.3282 34.7687 15.77 34.7687C12.63 34.6691 9.87883 34.0809 7.32699 32.9545C6.89836 32.7851 6.4498 32.5259 5.77197 32.0674C4.76519 31.3796 4.39637 30.7018 4.45618 29.6551C4.55586 28.5187 4.52596 27.4123 4.48608 26.3557C4.48608 26.1862 4.48608 25.9968 4.47611 25.8174C6.19063 26.7743 8.02476 27.4123 10.0383 27.7711C11.5236 28.0403 13.0287 28.2097 14.3744 28.3493H14.5838C15.8098 28.3493 16.8067 27.3525 16.8067 26.1264C16.8067 25.5582 16.6073 25.0498 16.2185 24.6212C15.8697 24.2225 15.3413 23.9833 14.7433 23.9334C12.2911 23.764 10.2576 23.3353 8.33377 22.5877C7.23728 22.1691 6.14079 21.4314 5.16391 20.7835C4.68544 20.4645 4.52596 19.9362 4.52596 18.6802V16.577C4.53592 16.1284 4.54589 15.63 4.53592 15.0419C7.95498 16.866 11.9422 17.7133 17.026 17.7133C21.8405 17.7133 25.6284 16.9458 28.9378 15.2811L29.0774 15.2213C29.1472 15.1814 29.2169 15.1415 29.2867 15.1017C29.3266 15.0817 29.3665 15.0518 29.4163 15.0319L29.526 14.9721C29.9047 14.7727 30.2736 14.5634 30.6125 14.364L30.7022 14.3042C30.752 14.2644 30.8019 14.2245 30.8118 14.2145L30.5427 13.8557L30.9115 14.1447C32.5961 12.9486 33.3836 11.6029 33.7524 10.6858C33.9119 10.2871 33.9917 9.89832 33.9917 9.4697C34.0016 9.36005 34.0016 9.2504 34.0016 9.14075C34.0016 7.14713 33.1344 5.42265 31.4099 3.99721ZM17.3649 13.2974H17.1256C13.1982 13.2974 10.2676 12.7691 7.65594 11.5929C6.65913 11.1244 5.78194 10.5662 5.1041 9.94816C4.74525 9.63915 4.54589 9.31021 4.52596 8.98126C4.50602 8.68222 4.68544 8.3134 5.1041 7.8449C5.97133 6.94777 7.09773 6.30981 8.73249 5.7815C11.6432 4.90431 14.4642 4.45574 17.1256 4.45574C20.1659 4.45574 23.1862 5.01396 26.1069 6.11045C26.9442 6.40949 27.9111 6.99761 28.898 7.81499C29.187 8.05423 29.5359 8.42305 29.5359 8.84171C29.5359 9.22049 29.3067 9.61922 28.8382 10.0578C27.4626 11.3337 25.6982 11.9518 24.3226 12.3405C22.1795 12.9685 19.7772 13.2974 17.3649 13.2974Z" fill="#3778C2"/>
<path d="M46.2425 32.4063L45.7142 31.9777C45.4052 31.7185 45.0862 31.4494 44.7772 31.1802L46.2724 29.9242C47.1994 29.1368 47.5184 28.0203 47.1396 26.864C46.5615 25.1196 45.6344 23.5048 44.3784 22.0694C43.5411 21.1224 42.4147 20.8234 41.2086 21.252L40.2118 21.6108C39.9426 21.7105 39.6735 21.8002 39.3944 21.8999C39.2748 21.2321 39.1552 20.5642 39.0256 19.9163C38.8162 18.7899 37.9789 17.9426 36.8525 17.7133C34.9586 17.3146 33.0547 17.3246 31.1707 17.7133C30.0343 17.9526 29.197 18.7998 28.9877 19.9362L28.8681 20.624C28.7883 21.0526 28.7086 21.4713 28.6388 21.8999C28.0008 21.6707 27.3729 21.4514 26.7847 21.242C25.6484 20.8333 24.502 21.1124 23.7245 21.9896C22.4386 23.425 21.4817 25.0598 20.8936 26.8441C20.5048 28.0303 20.8138 29.1268 21.7708 29.9342L23.2361 31.1902L21.7309 32.4561C20.8138 33.2337 20.5048 34.3401 20.8836 35.4864C21.4717 37.2907 22.4287 38.9354 23.7245 40.3808C24.502 41.248 25.6683 41.5371 26.8346 41.1085C27.4327 40.8892 28.0308 40.6798 28.6288 40.4705C28.7485 41.1084 28.8681 41.7663 28.9977 42.4641C29.207 43.5805 30.0244 44.4079 31.1209 44.6471C32.0878 44.8465 33.0646 44.9462 34.0216 44.9462C34.9686 44.9462 35.9155 44.8465 36.8426 44.6571C38.0188 44.4079 38.8162 43.5905 39.0355 42.4143L39.3944 40.4705C39.6436 40.5502 39.8928 40.6399 40.1619 40.7396L41.2684 41.1284C42.3649 41.5271 43.5212 41.238 44.2887 40.3907C45.5746 38.9553 46.5316 37.3305 47.1296 35.5363C47.5383 34.3202 47.2293 33.2436 46.2425 32.4063ZM40.5706 32.4362C40.78 32.9446 41.1288 33.433 41.5575 33.8118C42.006 34.2105 42.4546 34.5893 42.953 35.008C42.654 35.6958 42.2652 36.3537 41.8067 36.9717L41.3083 36.8022C40.9295 36.6627 40.5507 36.5331 40.1719 36.3935C39.1253 36.0147 38.0587 36.0845 37.1615 36.6029C36.2744 37.1212 35.6763 37.9984 35.4869 39.0849C35.3772 39.6531 35.2776 40.2213 35.1679 40.7795C34.4103 40.8692 33.6328 40.8692 32.8553 40.7795C32.7457 40.1814 32.646 39.6033 32.5463 39.0351C32.2373 37.3006 30.8218 36.1443 28.9877 36.1443H28.8083L28.1603 36.3038C27.941 36.3736 27.6719 36.4633 27.3928 36.553C27.004 36.6926 26.6153 36.8321 26.2265 36.9717C25.758 36.3537 25.3792 35.6958 25.0802 34.998L26.4458 33.8417C27.2532 33.1639 27.7118 32.197 27.7118 31.1902C27.7217 30.1834 27.2532 29.2165 26.4558 28.5287L25.0802 27.3624C25.3792 26.6746 25.758 26.0167 26.2265 25.3987C26.8047 25.5981 27.4127 25.8174 28.0108 26.0267C28.9578 26.3557 30.0144 26.256 30.8816 25.7476C31.7588 25.2392 32.3569 24.362 32.5363 23.3553C32.646 22.7671 32.7457 22.179 32.8553 21.5909C33.6229 21.4912 34.4004 21.4912 35.1779 21.5909C35.2776 22.1591 35.3872 22.7273 35.4869 23.3054C35.6564 24.3321 36.2544 25.2293 37.1316 25.7476C37.9989 26.256 39.0555 26.3557 40.0224 26.0267C40.5906 25.8274 41.1488 25.628 41.717 25.4286L41.8067 25.3987C42.2652 26.0167 42.654 26.6746 42.953 27.3624L41.6272 28.4888C40.4111 29.5056 40.0024 31.0506 40.5706 32.4362Z" fill="#3778C2"/>
<path d="M37.8991 27.3325C36.8625 26.2859 35.4869 25.7177 34.0116 25.7177C31.0012 25.7177 28.5491 28.1599 28.5391 31.1603C28.5291 34.1806 30.9813 36.6427 34.0016 36.6527H34.0116C37.0219 36.6527 39.4741 34.2105 39.4841 31.2201C39.494 29.7448 38.9259 28.3593 37.8991 27.3325ZM34.0116 29.8146C34.3904 29.8146 34.7393 29.9641 34.9984 30.2233C35.2476 30.4725 35.3971 30.8214 35.3872 31.2002C35.3872 31.9478 34.7692 32.5459 34.0116 32.5459C33.254 32.5459 32.636 31.9278 32.636 31.1703C32.636 30.4227 33.254 29.8146 34.0116 29.8146Z" fill="#3778C2"/>
</svg>
