<svg width="47" height="50" viewBox="0 0 47 50" fill="none" xmlns="http://www.w3.org/2000/svg">
<path d="M40.2 14.8935C40.16 12.9166 39.47 11.2278 38.13 9.86689C35.21 6.93637 32.63 4.38335 30.25 2.06874C28.87 0.727661 27.14 0.0223514 25.26 0.0223514C18.27 -0.00745045 11.2 -0.00745045 4.25 0.0223514C3.57 0.0223514 2.87 0.201162 2.28 0.509114C0.77 1.26409 0 2.59524 0 4.48269V45.788C0.11 48.1026 1.89 49.851 4.15 49.851H20.08C21.23 49.851 22.17 48.9172 22.17 47.745C22.17 46.6026 21.23 45.6688 20.08 45.6688H4.8C4.67 45.6688 4.4 45.6688 4.26 45.6489C4.24 45.5099 4.24 45.2218 4.24 45.0827V4.7211C4.24 4.59196 4.24 4.30388 4.26 4.1648C4.4 4.14494 4.67 4.14494 4.8 4.14494H23.77C24.32 4.14494 24.76 4.58203 24.76 5.1284V5.34694C24.76 7.45294 24.75 9.44966 24.8 11.4464C24.8 12.1716 25 12.9663 25.35 13.6219C26.09 15.0226 27.41 15.7478 29.19 15.7478H35.03C35.58 15.7478 36.02 16.1948 36.02 16.7412V19.6717C36.02 20.8141 36.96 21.7479 38.12 21.7479C39.27 21.7479 40.21 20.8141 40.21 19.6717C40.21 17.0591 40.2 15.2312 40.2 14.8935ZM29.22 11.5755C29 11.5755 28.94 11.5457 28.97 11.5358V6.73769C29.65 7.43307 30.32 8.11851 30.99 8.79402C31.91 9.72781 32.82 10.6616 33.72 11.5755H29.22Z" fill="#3778C2"/>
<path d="M33.62 20.3075C33.62 21.3803 32.88 22.2446 31.83 22.4035C31.58 22.4433 31.31 22.4433 31.04 22.4433C27.43 22.4135 23.84 22.4134 20.24 22.4134H9.14002C7.75002 22.4134 6.77002 21.5591 6.77002 20.3373C6.77002 19.2644 7.53002 18.3902 8.58002 18.2611C8.84002 18.2313 9.15002 18.2313 9.41002 18.2313H31.01C31.27 18.2313 31.51 18.2313 31.78 18.2611C32.86 18.3902 33.62 19.2247 33.62 20.3075Z" fill="#3778C2"/>
<path d="M23.29 26.9632C23.29 28.036 22.55 28.9003 21.5 29.0592C21.26 29.099 20.98 29.099 20.71 29.099C20.29 29.099 19.97 29.089 19.74 29.0791H19.66V29.0692H9.14002C7.75002 29.0692 6.77002 28.2148 6.77002 26.993C6.77002 25.9201 7.53002 25.0459 8.58002 24.9267C8.84002 24.887 9.15002 24.887 9.41002 24.887H20.68C20.95 24.887 21.18 24.887 21.45 24.9267C22.53 25.0459 23.29 25.8903 23.29 26.9632Z" fill="#3778C2"/>
<path d="M19.85 33.6189C19.85 34.6918 19.11 35.556 18.06 35.715C17.81 35.7547 17.54 35.7547 17.27 35.7547C16.85 35.7547 16.53 35.7448 16.3 35.7348H16.22L16.21 35.7249H9.14002C7.75002 35.7249 6.77002 34.8706 6.77002 33.6487C6.77002 32.5759 7.53002 31.7017 8.58002 31.5825C8.84002 31.5427 9.15002 31.5427 9.41002 31.5427H17.23C17.5 31.5427 17.74 31.5427 18.01 31.5825C19.09 31.7017 19.85 32.5461 19.85 33.6189Z" fill="#3778C2"/>
<path d="M21.3099 13.7312C21.3099 14.9332 20.3999 15.7875 19.0999 15.7875H8.91995C7.87995 15.7875 7.02995 15.1418 6.81995 14.1981C6.58995 13.2742 7.00995 12.3007 7.80995 11.9033C8.13995 11.7245 8.59995 11.6053 9.03995 11.6053C12.4099 11.5755 15.6999 11.5755 19.0699 11.6053C19.7599 11.6053 20.3599 11.8338 20.7699 12.251C21.1399 12.6285 21.3299 13.1451 21.3099 13.7312Z" fill="#3778C2"/>
<path d="M18.2099 40.3442C18.2099 41.5462 17.2999 42.4005 15.9999 42.4005C15.4999 42.4105 15.2599 42.4105 15.1399 42.4105H14.9699C14.8999 42.4005 14.7999 42.4005 14.0299 42.4005H8.91995C7.87995 42.4005 7.02995 41.7648 6.81995 40.8111C6.58995 39.8872 7.00995 38.9236 7.80995 38.5263C8.13995 38.3375 8.60995 38.2183 9.03995 38.2183C12.3899 38.1885 12.6199 38.1885 15.9799 38.2183C16.6599 38.2183 17.2699 38.4468 17.6699 38.864C18.0399 39.2515 18.2299 39.7581 18.2099 40.3442Z" fill="#3778C2"/>
<path d="M43.17 36.6885C42.73 36.2514 42.12 36.0329 41.35 36.0329H34.28V28.95C34.28 27.5195 33.35 26.5559 31.98 26.5559C31.9 26.5559 31.82 26.5559 31.76 26.5658C30.99 26.6155 30.24 26.6751 29.48 26.844C26.42 27.4897 23.79 29.2977 22.09 31.9302C20.38 34.5726 19.81 37.7217 20.49 40.7912C21.7 46.2152 26.43 50 32.01 50C32.76 50 33.5 49.9305 34.2 49.8013C39.64 48.798 43.77 43.9502 43.82 38.5164C43.82 38.2283 43.83 37.3541 43.17 36.6885ZM32.24 40.533H38.93C38.69 41.2681 38.33 41.9535 37.83 42.5992C36.61 44.2085 34.99 45.1522 33.02 45.4304C32.67 45.4801 32.33 45.4999 31.99 45.4999C28.17 45.4999 24.99 42.5197 24.76 38.725C24.64 36.7779 25.28 34.9203 26.56 33.4997C27.43 32.5262 28.55 31.801 29.75 31.4136V38.0395C29.75 39.619 30.66 40.533 32.24 40.533Z" fill="#3778C2"/>
<path d="M46.34 29.546C45.1 26.0195 41.61 23.536 37.82 23.5062C36.49 23.5062 35.6 24.3903 35.6 25.7115V32.5162C35.6 33.8375 36.49 34.7216 37.81 34.7216H44.69C45.33 34.7216 45.88 34.503 46.29 34.1057C46.69 33.6984 46.9 33.152 46.89 32.5162C46.88 31.5427 46.7 30.5394 46.34 29.546ZM42.24 30.5493H39.8V28.1155C40.2 28.3043 40.57 28.5427 40.93 28.8506C41.52 29.3473 41.95 29.9136 42.24 30.5493Z" fill="#3778C2"/>
</svg>
