<svg width="50" height="50" viewBox="0 0 50 50" fill="none" xmlns="http://www.w3.org/2000/svg">
<path d="M48.31 42.11C47.97 40.84 47.59 39.54 47.25 38.27C47.24 38.22 47.22 38.18 47.21 38.12C46.7 36.29 44.35 35.77 43.11 37.21L43.07 37.26C42.55 37.87 42.37 38.69 42.58 39.46C42.91 40.64 43.38 42.3 43.58 43.04C43.71 43.55 43.79 43.97 43.62 44.35C43.37 44.9 43.03 45.11 42.48 45.11H6.42C5.87 45.11 5.45 44.94 5.2 44.6C4.95 44.26 4.86 43.84 4.99 43.33C5.24 42.23 5.54 41.13 5.88 40.04C5.96 39.74 6.05 39.49 6.13 39.2C6.38 38.27 6.68 37.35 6.93 36.46C7.01 36.12 7.14 35.83 7.23 35.49C7.36 35.07 7.61 34.73 7.99 34.56C10.02 33.63 12.08 32.75 14.11 31.86C14.74 31.56 15.42 31.27 16.05 31.02C16.13 30.97 16.26 30.94 16.35 30.89C16.56 30.81 16.77 30.72 17.03 30.59H17.07C17.12 30.59 17.15 30.63 17.24 30.67C18.97 31.85 20.7 32.61 22.6 32.91C23.23 32.99 23.82 33.03 24.42 33.03C26.06 33.03 27.67 32.65 29.19 31.93C29.74 31.68 30.25 31.38 30.75 31.09C31.05 30.92 31.34 30.75 31.64 30.58C32.76 31.06 33.89 31.55 35.01 32.03C35.97 32.44 37.08 32.18 37.76 31.39C37.77 31.37 37.79 31.35 37.8 31.34C38.86 30.11 38.41 28.21 36.92 27.58C35.24 26.87 33.33 26.08 32.43 25.73L31.42 25.35C31.3 25.3 31.17 25.27 31.04 25.27C30.79 25.27 30.49 25.35 30.24 25.52C29.23 26.28 28.21 27.04 27.03 27.55C26.06 27.97 25.13 28.14 24.2 28.14C23.48 28.14 22.72 28.02 22 27.76C20.86 27.38 19.77 26.7 18.5 25.65C18.29 25.48 17.95 25.23 17.49 25.23C17.28 25.23 17.07 25.27 16.81 25.36C13.26 26.67 9.85 28.19 5.88 30.04C4.19 30.84 3.01 32.19 2.46 33.96C1.91 35.99 1.36 37.97 0.77 40.08C0.73 40.29 0.64 40.54 0.56 40.76C0.3 41.65 0 42.57 0 43.63C0 45.32 0.68 47 1.86 48.23C2.99 49.37 4.52 50 6.12 50H6.25C8.45 49.96 10.68 49.96 12.71 49.96H23.47V50H42.33C43.64 50 44.82 49.66 45.79 48.94C48.15 47.34 49.03 44.73 48.31 42.11Z" fill="#3778C2"/>
<path d="M33.08 3.67C30.76 1.31 27.64 0 24.34 0H24.3C21.09 0 18.06 1.27 15.73 3.5C13.41 5.78 12.1 8.86 12.06 12.15C12.02 15.4 13.28 18.52 15.56 20.84C17.84 23.2 20.88 24.51 24.13 24.51C24.17 24.51 24.21 24.51 24.26 24.51C27.55 24.51 30.59 23.24 32.91 20.97C35.23 18.69 36.54 15.57 36.58 12.24C36.62 9.07 35.4 5.99 33.08 3.67ZM24.34 19.7H24.26C20.12 19.66 16.88 16.33 16.92 12.11C16.96 8.14 20.34 4.81 24.3 4.81H24.34C26.32 4.81 28.22 5.61 29.62 7.04C31.01 8.43 31.77 10.29 31.77 12.23C31.73 16.37 28.39 19.7 24.34 19.7Z" fill="#3778C2"/>
<path d="M49.75 25.78C49.63 25.97 49.51 26.12 49.35 26.3C46.03 30.14 40.53 36.56 39.02 38.31C38.81 38.55 38.56 38.74 38.28 38.89L37.36 39.35L36.31 39.87C36.24 39.91 36.16 39.92 36.09 39.92C35.77 39.92 35.5 39.61 35.6 39.29L35.94 38.15L36.25 37.14C36.34 36.8 36.5 36.53 36.74 36.25C37.75 35.09 45.16 26.45 47.19 24.12C47.52 23.74 47.91 23.56 48.32 23.56C48.66 23.56 49.02 23.7 49.35 23.97C49.9 24.43 50.08 25.23 49.75 25.78Z" fill="#3777C1"/>
</svg>
