<svg width="48" height="50" viewBox="0 0 48 50" fill="none" xmlns="http://www.w3.org/2000/svg">
<path d="M47.59 42.3077C47.25 41.0189 46.88 39.7098 46.53 38.4412C46.23 37.3757 45.92 36.2797 45.63 35.204C45.36 34.2196 45.09 33.3469 44.48 32.5452L44.39 32.4335C43.89 31.7637 43.31 31.0128 42.43 30.5967C40.56 29.7037 38.73 28.8411 36.84 28.0089C35.13 27.2783 33.4 26.578 31.9 25.9793L30.91 25.5734C30.82 25.5429 30.72 25.5226 30.62 25.5226C30.4 25.5226 30.15 25.614 29.96 25.7459L29.91 25.7865C29.29 26.2634 28.64 26.7607 27.95 27.1768C27.54 27.4406 27.14 27.6537 26.73 27.8263C25.75 28.2525 24.81 28.4554 23.86 28.4554C23.12 28.4554 22.37 28.3235 21.63 28.0597C21.07 27.8669 20.53 27.603 19.97 27.2681C19.37 26.9129 18.76 26.4664 18.09 25.9184C17.91 25.756 17.62 25.5531 17.2 25.5531C17.01 25.5531 16.82 25.5835 16.6 25.6749C13.08 26.984 9.70999 28.5163 5.73999 30.414C4.11999 31.1752 2.98999 32.5046 2.44999 34.25C1.86999 36.1376 1.29999 38.1063 0.719992 40.2781C0.679992 40.4404 0.639992 40.6028 0.589992 40.755L0.529992 40.9681L0.509992 41.029C0.269992 41.9018 0.00999164 42.805 -8.36429e-06 43.7792C-0.0100084 45.4536 0.639992 47.0773 1.78999 48.2545C2.88999 49.381 4.32999 50 5.85999 50H5.97999C8.17999 49.9594 10.37 49.9493 12.42 49.9493H23.34V49.9898H33.16C36.68 49.9898 39.38 49.9899 41.92 50C43.19 50 44.32 49.6448 45.28 48.9649C47.4 47.4427 48.29 44.8955 47.59 42.3077ZM21.39 36.3304L22.25 32.9714L22.3 32.7989L22.48 32.8293C22.96 32.8902 23.45 32.9308 23.94 32.9308C24.48 32.9308 25.01 32.8902 25.51 32.809L25.69 32.7786L25.74 32.9612L26.56 36.3101C26.58 36.4116 26.57 36.5131 26.51 36.5841L24.23 39.5677C24.17 39.6489 24.07 39.6996 23.96 39.6996C23.85 39.6996 23.75 39.6489 23.68 39.5677L21.45 36.6247C21.38 36.5435 21.36 36.4319 21.39 36.3304ZM43.3 44.6012C43.01 45.2304 42.61 45.5044 41.98 45.5044H6.10999C5.50999 45.5044 5.00999 45.2913 4.71999 44.9056C4.41999 44.5403 4.32999 44.0532 4.45999 43.4849C4.69999 42.4092 4.99999 41.3335 5.29999 40.2882L5.33999 40.1563L5.44999 39.7301L5.56999 39.3038C5.76999 38.6138 5.96999 37.9034 6.16999 37.2133L6.37999 36.5232C6.42999 36.3406 6.47999 36.1681 6.52999 35.9955C6.57999 35.8433 6.61999 35.6911 6.66999 35.5389C6.80999 35.0619 7.11999 34.6864 7.51999 34.4936C9.29999 33.6716 11.13 32.8598 12.89 32.0682L13.6 31.7536C14.25 31.4695 14.9 31.1853 15.55 30.891C15.65 30.8504 15.76 30.7997 15.87 30.7591C16.09 30.6779 16.3 30.5866 16.5 30.4749L16.57 30.4343L16.69 30.4445C16.75 30.4648 16.82 30.5155 16.91 30.5764C17.59 31.0534 18.24 31.4492 18.91 31.7637L19.06 31.8348L19.02 31.9972L18.13 35.478C17.84 36.5943 18.08 37.8019 18.78 38.7254L21.01 41.6582C21.71 42.5817 22.81 43.1297 23.96 43.1297C25.12 43.1297 26.19 42.5918 26.9 41.6582L29.17 38.6949C29.87 37.7715 30.12 36.6044 29.84 35.478L28.94 31.8551L28.9 31.7029L29.04 31.6318C29.42 31.4289 29.79 31.2157 30.14 31.0026C30.43 30.8301 30.74 30.6576 31.03 30.4851L31.12 30.4343L31.21 30.4749C33.64 31.5303 36.1 32.6162 38.48 33.6615L38.97 33.8746C39.08 33.9253 39.2 33.976 39.32 34.0369C39.5 34.1283 39.68 34.2196 39.89 34.3008C40.57 34.5646 41 35.0923 41.24 35.9549C41.6 37.2438 41.97 38.563 42.34 39.8417L42.39 40.0345C42.69 41.0595 42.99 42.1149 43.28 43.1601C43.43 43.7081 43.49 44.1648 43.3 44.6012Z" fill="#3778C2"/>
<path d="M32.51 3.64319C30.23 1.30911 27.18 0.0101482 23.94 0H23.89C20.74 0 17.77 1.23808 15.51 3.48082C13.24 5.75401 11.97 8.78831 11.93 12.0459C11.9 15.2831 13.12 18.3479 15.37 20.682C17.61 23.0059 20.58 24.3048 23.74 24.3454H23.87C27.08 24.3454 30.08 23.0972 32.35 20.8443C34.63 18.5711 35.91 15.4962 35.94 12.1981C35.96 8.98112 34.74 5.94682 32.51 3.64319ZM23.94 19.8803H23.85C19.61 19.8397 16.32 16.3791 16.36 12.0256C16.4 7.92572 19.85 4.46519 23.9 4.46519C25.98 4.47534 27.9 5.29734 29.34 6.77897C30.76 8.23016 31.53 10.138 31.52 12.1575C31.48 16.4197 28.08 19.8803 23.94 19.8803Z" fill="#3778C2"/>
</svg>
