<svg width="50" height="50" viewBox="0 0 50 50" fill="none" xmlns="http://www.w3.org/2000/svg">
<path d="M49.2043 13.6932V13.6831C49.1742 12.1172 49.1039 10.8324 48.8931 9.66798C48.2708 5.79338 46.3836 3.03298 43.2719 1.45704C41.3647 0.483369 39.2568 0.0115907 36.8276 0.0115907C35.6331 -0.00848497 34.4185 0.00155286 33.214 0.0115907H22.1724C21.0883 0.0115907 20.1347 0.0718177 19.161 0.192272C13.9815 0.814617 10.6289 3.86612 9.45446 8.99545C9.38419 9.36685 9.30389 9.44715 8.94253 9.51742C5.40921 10.3004 2.86964 12.2076 1.41415 15.2089C0.520786 17.0558 0.0690835 19.1537 0.0289321 21.613V21.9342C-0.00118138 25.2768 -0.0312949 28.7298 0.0690835 32.1226C0.139348 33.9294 0.390294 35.7162 0.821921 37.4226C1.63499 40.6548 3.65259 42.7527 6.82455 43.6762C8.63136 44.2182 10.6389 44.4491 13.2989 44.4089C13.6202 44.4089 13.7406 44.4692 13.8912 44.7301C14.5637 45.6938 15.2965 46.6574 15.9991 47.5809L16.3304 48.0225C17.2739 49.2773 18.6491 50 20.1146 50C21.5601 50 22.9553 49.2773 23.929 48.0326C24.0294 47.9121 24.1197 47.7816 24.2101 47.6612C24.3707 47.4504 24.5212 47.2396 24.712 47.0388C25.2741 46.296 25.8563 45.5231 26.3983 44.7301C26.579 44.4792 26.7095 44.4089 27.0709 44.4089C27.9943 44.4089 28.9279 44.3487 29.8313 44.2383C35.2115 43.6059 38.5441 40.6447 39.7486 35.4351C39.8591 34.9533 39.9695 34.873 40.3308 34.8027C43.8039 34.0198 46.3033 32.1327 47.7588 29.1815C48.6723 27.2844 49.134 25.1664 49.1742 22.7172C49.2344 20.1876 49.2444 17.3168 49.2043 13.6932ZM35.6733 33.6684C35.4524 37.3122 33.2742 39.4703 29.3996 39.9019C28.3356 40.0124 27.2817 40.0324 26.589 40.0324C25.1536 40.0324 24.0194 40.6146 23.1461 41.8091C22.875 42.1805 22.594 42.562 22.323 42.9334C22.0419 43.3148 21.7608 43.6962 21.4898 44.0676L20.6466 45.232C20.3756 45.6034 20.215 45.6536 20.1448 45.6536C20.0243 45.6536 19.8637 45.5131 19.683 45.2722L17.2137 41.9095C16.3404 40.725 15.1459 40.1027 13.6703 40.0726C12.2952 40.0425 10.669 39.9822 9.05295 39.7614C6.59368 39.4 5.22853 38.065 4.78687 35.5455C4.57607 34.4514 4.45562 33.3673 4.41547 32.2431C4.38535 28.8101 4.3452 25.2567 4.41547 21.7234C4.44558 19.5954 4.84709 17.9793 5.65012 16.6242C6.74424 14.8375 8.5109 13.8136 10.7493 13.6831C13.1183 13.5326 15.5173 13.5125 17.1133 13.5125C18.0067 13.5125 18.9402 13.5125 19.8436 13.4824H27.4724C29.3595 13.4824 30.7748 13.7333 32.0697 14.3055C34.3182 15.3193 35.6131 17.2566 35.7134 19.766C35.7937 22.1651 35.864 24.6444 35.864 27.184C35.864 29.312 35.8138 31.4802 35.6733 33.6684ZM44.7575 24.1024C44.6873 26.0598 43.9645 27.7461 42.6596 28.9707C41.9369 29.6031 41.174 30.0448 40.2606 30.3359V24.0522C40.2606 21.9543 40.2606 19.7962 39.7486 17.6681C38.5642 12.8098 35.1312 9.83863 30.0722 9.30662C28.1951 9.10587 26.2879 9.10587 24.4309 9.10587H13.8811C14.2626 7.77083 14.9552 6.73694 16.0092 5.93391C17.2539 4.97028 18.7997 4.45835 20.5864 4.42824C26.9906 4.3379 32.5816 4.3379 37.6909 4.42824C40.1903 4.45835 42.0975 5.34168 43.3623 7.04811C44.3159 8.31288 44.8177 9.94904 44.8579 11.9165C44.878 13.3218 44.888 14.707 44.888 16.052C44.888 18.8225 44.8479 21.4926 44.7575 24.1024Z" fill="#3778C2"/>
<path d="M22.845 27.2342C22.845 28.7499 21.6806 29.9645 20.185 30.0046C19.4522 30.0046 18.7697 29.7236 18.2176 29.2016C17.7056 28.7198 17.4146 28.0071 17.4146 27.2342C17.4146 25.7486 18.6291 24.534 20.1147 24.534C20.8375 24.5139 21.52 24.785 22.032 25.2869C22.5539 25.7887 22.845 26.4814 22.845 27.2342Z" fill="#3778C2"/>
<path d="M30.002 27.2342C30.002 27.9469 29.7109 28.6495 29.209 29.1615C28.7071 29.6633 28.0346 29.9344 27.3018 29.9344C25.8363 29.9344 24.6117 28.7098 24.5715 27.2141C24.5715 26.4613 24.8526 25.7687 25.3645 25.2467C25.8865 24.7147 26.5691 24.4336 27.3319 24.4336C28.8577 24.5139 30.002 25.7185 30.002 27.2342Z" fill="#3778C2"/>
<path d="M15.6579 27.2743C15.6579 27.987 15.3668 28.6897 14.8649 29.2016C14.353 29.7135 13.6604 30.0046 12.9577 30.0046C11.4119 30.0046 10.2274 28.8101 10.2274 27.2743C10.2274 26.5014 10.5185 25.7887 11.0304 25.3069C11.5323 24.785 12.2249 24.5039 12.9577 24.5039C13.6905 24.5039 14.373 24.795 14.885 25.317C15.3969 25.849 15.678 26.5416 15.6579 27.2743Z" fill="#3778C2"/>
</svg>
