<svg width="53" height="50" viewBox="0 0 53 50" fill="none" xmlns="http://www.w3.org/2000/svg">
<path d="M5.47298 38.0599C5.55332 37.7988 5.62361 37.5276 5.70395 37.2665C5.95501 36.3929 6.2161 35.4991 6.4772 34.6455C6.56758 34.3342 6.65796 34.033 6.75838 33.7216C6.87889 33.32 7.13998 33.0086 7.47137 32.858C9.39947 31.9843 11.3677 31.1107 13.2758 30.2772C13.8984 30.006 14.521 29.7349 15.1436 29.4638C15.234 29.4236 15.3344 29.3834 15.4348 29.3433C15.6357 29.273 15.8566 29.1826 16.0675 29.0621C16.0775 29.052 16.0876 29.052 16.0976 29.042C16.1177 29.052 16.1679 29.0721 16.2583 29.1324C17.8952 30.2772 19.5622 30.96 21.3396 31.2412C21.9221 31.3316 22.5146 31.3818 23.087 31.3818C24.6535 31.3818 26.19 31.0404 27.626 30.3575C28.1382 30.1065 28.6403 29.8253 29.1123 29.5441C29.3934 29.3834 29.6746 29.2127 29.9558 29.0621C30.6387 29.3533 31.3316 29.6445 32.0145 29.9458C32.7777 30.2772 33.6614 30.1667 34.3041 29.6445C34.3242 29.6345 34.3342 29.6244 34.3442 29.6043C35.71 28.5298 35.4288 26.3909 33.8321 25.7281C32.5869 25.2059 31.3918 24.7138 30.7592 24.4628L29.8052 24.1012C29.6947 24.0611 29.5742 24.041 29.4537 24.041C29.2026 24.041 28.9215 24.1414 28.7106 24.292C27.7566 25.0151 26.7624 25.7582 25.6678 26.2201C24.754 26.6118 23.8803 26.8026 22.9966 26.8026C22.3137 26.8026 21.6108 26.6821 20.9279 26.4411C19.8433 26.0595 18.7789 25.4268 17.6039 24.4527C17.4031 24.292 17.0817 24.0611 16.6298 24.0611C16.429 24.0611 16.2282 24.1012 15.9871 24.1916C12.613 25.4268 9.38943 26.8729 5.60353 28.6604C4.01687 29.4135 2.89214 30.6989 2.35991 32.3961C1.7875 34.2037 1.25527 36.0715 0.71299 38.0799C0.652737 38.3009 0.592484 38.5017 0.532231 38.7126C0.271134 39.5662 0.0100379 40.4499 -4.32145e-06 41.424C-0.0100465 43.0508 0.622611 44.6274 1.75738 45.7723C2.85197 46.8669 4.27796 47.4794 5.79433 47.4794C5.8345 47.4794 5.87467 47.4794 5.91484 47.4794C8.01365 47.4393 10.1024 47.4393 12.0707 47.4393H13.7979C14.3503 47.4393 14.8925 47.4393 15.4449 47.4393H22.3137L28.0378 47.4593C29.6244 47.4694 30.7291 45.8827 30.1767 44.3965L30.1567 44.3463C29.8253 43.4525 28.9817 42.8701 28.0277 42.8701H8.28479C7.54167 42.8701 6.78851 42.8701 6.03534 42.8701H6.0253C5.51315 42.8701 5.09138 42.6893 4.84032 42.378C4.59931 42.0767 4.52902 41.665 4.62944 41.193C4.87045 40.1386 5.18176 39.0842 5.47298 38.0599Z" fill="#3778C2"/>
<path d="M31.3918 3.49468C29.1825 1.25527 26.2301 0.0200844 23.0668 0H23.0166C19.9537 0 17.0716 1.18498 14.8824 3.334C12.6732 5.50311 11.438 8.41534 11.4078 11.5284C11.3677 14.6315 12.5627 17.5638 14.7418 19.8032C16.921 22.0325 19.8031 23.2778 22.876 23.3079C22.9162 23.3079 22.9664 23.3079 23.0066 23.3079C26.1096 23.3079 29.0419 22.1129 31.2411 19.9538C33.4605 17.7747 34.6957 14.8323 34.7358 11.669C34.7559 8.5961 33.5709 5.69391 31.3918 3.49468ZM23.0668 18.7287H22.9865C19.0399 18.6885 15.977 15.5152 16.0172 11.5184C16.0473 7.7626 19.2608 4.58928 23.0266 4.58928H23.0668C24.9648 4.59932 26.7523 5.35248 28.0879 6.70817C29.4034 8.04378 30.1265 9.79112 30.1164 11.6389C30.0863 15.5453 26.923 18.7287 23.0668 18.7287Z" fill="#3778C2"/>
<path d="M51.8276 40.4097C51.687 40.2892 51.5465 40.1687 51.3958 40.0482C51.2954 39.9679 51.1849 39.8775 51.0845 39.7871C50.9741 39.6967 50.9038 39.5863 50.9038 39.5059C50.9038 39.4256 50.964 39.3252 51.0745 39.2348C51.195 39.1344 51.3054 39.044 51.4259 38.9436C51.5465 38.8532 51.6569 38.7528 51.7674 38.6624C52.7214 37.849 52.9423 36.6841 52.3297 35.6095C51.8578 34.756 51.3456 33.8723 50.7732 32.9082C50.3414 32.1751 49.5882 31.7333 48.7648 31.7333C48.5238 31.7333 48.2928 31.7734 48.0618 31.8337C47.7907 31.914 47.5296 32.0144 47.2886 32.1048C47.1882 32.145 47.0978 32.1751 46.9974 32.2153C46.9371 32.2354 46.8768 32.2454 46.8166 32.2454C46.666 32.2454 46.5756 32.145 46.5354 31.9442C46.4852 31.6328 46.435 31.3115 46.3747 31.0002C46.1839 29.8855 45.24 29.0621 44.1353 29.042C43.6031 29.0319 43.0508 29.0219 42.4985 29.0219C41.9562 29.0219 41.3938 29.0219 40.8315 29.042C39.7268 29.0621 38.7829 29.8755 38.592 30.9801C38.5619 31.1307 38.5418 31.2814 38.5117 31.432C38.5017 31.5023 38.4916 31.5726 38.4715 31.6328C38.4515 31.7634 38.4314 31.8939 38.4012 32.0345C38.3812 32.1651 38.2807 32.2555 38.1703 32.2555H38.1502C38.0699 32.2555 37.9293 32.2053 37.7887 32.155C37.7284 32.135 37.6682 32.1149 37.5979 32.0948C37.3267 32.0144 37.0656 31.914 36.8648 31.8538L36.674 31.7935L36.5434 31.7433H36.4029C35.1375 31.7433 34.4948 32.376 34.1936 32.9082C34.1132 33.0388 34.0429 33.1693 33.9726 33.2898C33.4404 34.1936 33.0086 34.9568 32.6069 35.6798C32.0546 36.674 32.2655 37.849 33.1291 38.6021C33.2797 38.7327 33.4304 38.8632 33.571 38.9737C33.6915 39.0641 33.7919 39.1544 33.9024 39.2549C34.0028 39.3452 34.063 39.4356 34.063 39.516C34.063 39.5963 34.0028 39.6967 33.8923 39.7871C33.7919 39.8775 33.6915 39.9679 33.581 40.0482C33.4304 40.1687 33.2697 40.3093 33.1191 40.4398C32.6872 40.8214 32.4161 41.3035 32.3257 41.8156C32.2353 42.3278 32.3257 42.86 32.6069 43.342C32.9182 43.9044 33.2396 44.4567 33.5509 44.999C33.591 45.0592 33.6212 45.1195 33.6613 45.1898C33.822 45.4609 33.9726 45.7321 34.1333 46.0032C34.6053 46.8367 35.3484 47.2986 36.2121 47.2986C36.5334 47.2986 36.8748 47.2284 37.2163 47.0978C37.5075 46.9873 37.7786 46.8869 38.0196 46.7965C38.0598 46.7764 38.1 46.7765 38.1402 46.7765C38.2807 46.7765 38.3812 46.8769 38.4113 47.0375C38.4515 47.2183 38.4715 47.3991 38.5017 47.5798C38.5318 47.7305 38.5519 47.8911 38.582 48.0418C38.7828 49.1866 39.7268 49.9899 40.8716 49.9899C41.4139 49.9899 41.9562 50 42.4985 50C43.0307 50 43.5629 50 44.0952 49.9899C45.25 49.9799 46.1839 49.1665 46.3747 48.0217C46.3948 47.9012 46.4149 47.8008 46.4249 47.6903C46.4651 47.4694 46.4952 47.2585 46.5354 47.0476C46.5655 46.8769 46.666 46.7765 46.8166 46.7765C46.8568 46.7765 46.907 46.7865 46.9572 46.8066C47.0576 46.8467 47.1681 46.8869 47.2785 46.9271C47.5195 47.0175 47.7706 47.1179 48.0317 47.1982C48.2727 47.2685 48.5037 47.3087 48.7447 47.3087C49.5681 47.3087 50.3113 46.8668 50.7431 46.1438C51.2854 45.2199 51.8176 44.296 52.3297 43.3922C52.9323 42.3579 52.7214 41.193 51.8276 40.4097ZM48.9957 42.2173C49.0761 42.2876 49.1564 42.3579 49.2368 42.4181L48.3631 43.9144C48.1723 43.8441 47.9714 43.7738 47.7706 43.7236C47.4593 43.6333 47.148 43.583 46.8266 43.583C45.1596 43.583 43.6935 44.8182 43.4123 46.4651C43.3922 46.5756 43.3721 46.6861 43.352 46.7965H41.6147C41.6047 46.7363 41.5947 46.676 41.5746 46.6057C41.434 45.712 41.0022 44.9488 40.3796 44.4165C39.777 43.9044 39.0038 43.5931 38.1502 43.5931C37.6883 43.5931 37.2263 43.6835 36.7845 43.8542C36.7242 43.8743 36.6639 43.9044 36.6137 43.9144L36.2723 43.3219L35.7401 42.4081C35.8204 42.3378 35.9007 42.2675 35.9811 42.2073C36.1217 42.0868 36.2623 41.9562 36.3828 41.8156C36.9451 41.1729 37.2564 40.3495 37.2564 39.5059C37.2564 38.4816 36.7845 37.4975 35.961 36.8046C35.8907 36.7443 35.8204 36.6841 35.7401 36.6238L36.3125 35.6296L36.6037 35.1175C36.674 35.1476 36.7543 35.1777 36.8246 35.1978C36.9753 35.2581 37.1158 35.2982 37.2665 35.3384C37.5577 35.4087 37.8489 35.4489 38.1402 35.4489C39.064 35.4489 39.9076 35.0874 40.5201 34.4848C41.0624 33.9626 41.434 33.2697 41.5645 32.4664C41.5746 32.3961 41.5846 32.3157 41.6047 32.2454H43.352C43.3621 32.3157 43.3721 32.386 43.3922 32.4664C43.6834 34.2237 45.0893 35.4589 46.8266 35.4589C47.2886 35.4589 47.7505 35.3685 48.1924 35.1878C48.2426 35.1677 48.3028 35.1476 48.353 35.1275L48.7648 35.8405L49.2267 36.6339C49.1464 36.6941 49.066 36.7644 48.9857 36.8247C48.1723 37.5075 47.7003 38.4917 47.7003 39.516C47.7204 40.5403 48.1823 41.5244 48.9957 42.2173Z" fill="#3778C2"/>
<path d="M45.2199 36.6841C44.4968 35.961 43.5328 35.5493 42.4984 35.5493C41.4741 35.5594 40.5 35.941 39.767 36.674C39.0439 37.3971 38.6322 38.3712 38.6322 39.3955C38.6322 40.4298 39.0339 41.4039 39.7569 42.1269C40.48 42.85 41.4541 43.2517 42.4884 43.2517C44.6073 43.2517 46.3346 41.5345 46.3446 39.4156C46.3546 38.3913 45.9529 37.4071 45.2199 36.6841ZM42.4884 41.0323C41.5946 41.0323 40.8616 40.2993 40.8616 39.4055C40.8616 38.5118 41.5946 37.7787 42.4884 37.7787C42.9303 37.7787 43.3319 37.9494 43.6432 38.2607C43.9546 38.572 44.1152 38.9837 44.1152 39.4256C44.1152 40.3093 43.3822 41.0323 42.4884 41.0323Z" fill="#3778C2"/>
</svg>
