<svg width="44" height="44" viewBox="0 0 44 44" fill="none" xmlns="http://www.w3.org/2000/svg">
<path d="M43.8 37.32C43.46 36.45 42.71 35.93 41.73 35.93C40.86 35.93 40.03 35.93 39.17 35.93C38.27 35.93 37.44 35.93 36.61 35.93C36.38 35.93 36.31 35.89 36.2 35.67C35.14 33.48 33.34 32.35 31 32.35H30.89C28.55 32.39 26.74 33.56 25.73 35.74C25.65 35.89 25.62 35.93 25.43 35.93C23.17 35.93 20.91 35.93 18.64 35.93H2.41C2.26 35.93 2.11 35.93 1.96 35.97C0.87 36.07 0 36.98 0 38.07C0 39.2 0.79 40.11 1.92 40.26C2.15 40.3 2.34 40.3 2.6 40.3H12.14C16.55 40.3 20.96 40.3 25.37 40.3C25.63 40.3 25.63 40.3 25.71 40.45C26.73 42.64 28.5 43.8 30.87 43.84H30.98C33.32 43.84 35.13 42.67 36.18 40.52C36.29 40.29 36.37 40.26 36.59 40.26H36.63C37.27 40.26 37.95 40.26 38.85 40.26H39.98H41.11H41.56C42.01 40.26 42.69 40.22 43.26 39.69C43.91 39.09 44.14 38.15 43.8 37.32ZM30.99 40.41C29.71 40.41 28.69 39.39 28.69 38.11C28.69 36.83 29.71 35.81 30.99 35.81C31.63 35.81 32.23 36.04 32.65 36.49C33.1 36.94 33.33 37.51 33.33 38.11C33.32 39.39 32.27 40.41 30.99 40.41Z" fill="#3778C2"/>
<path d="M43.84 21.3C43.61 20.58 43.05 19.75 41.54 19.75H35.62C32.94 19.75 30.27 19.75 27.59 19.75C27.36 19.75 27.36 19.75 27.29 19.6C26.23 17.38 24.43 16.17 22.05 16.17C19.68 16.17 17.87 17.34 16.77 19.56C16.69 19.75 16.66 19.75 16.47 19.75C15.23 19.75 14.02 19.75 12.78 19.75H2.49C2.38 19.75 2.19 19.75 2.04 19.75C1.14 19.83 0.490001 20.32 0.190001 21.18C-0.109999 22.05 0.0800012 22.84 0.760001 23.52C1.29 24.01 1.97 24.09 2.49 24.09H7.54C10.48 24.09 13.38 24.09 16.32 24.09C16.62 24.09 16.7 24.13 16.85 24.39C17.91 26.54 19.71 27.67 22.05 27.67H22.09C24.43 27.67 26.24 26.5 27.29 24.32C27.4 24.13 27.44 24.09 27.67 24.09C30.16 24.09 32.68 24.09 35.17 24.09C37.21 24.09 39.24 24.09 41.28 24.09H41.47C41.73 24.09 42.04 24.09 42.3 24.01C42.87 23.9 43.39 23.52 43.69 23.03C43.95 22.51 44.03 21.87 43.84 21.3ZM22.01 24.2C21.37 24.2 20.77 23.97 20.35 23.52C19.94 23.11 19.67 22.5 19.67 21.86C19.67 20.58 20.69 19.56 21.97 19.56C22.61 19.56 23.21 19.79 23.63 20.24C24.04 20.69 24.31 21.26 24.31 21.9C24.31 23.18 23.3 24.2 22.01 24.2Z" fill="#3778C2"/>
<path d="M41.95 3.58C41.8 3.58 41.61 3.58 41.46 3.58H32.94C28.15 3.58 23.37 3.58 18.58 3.58C18.35 3.58 18.35 3.58 18.24 3.39C17.19 1.17 15.42 0 13 0H12.96C10.59 0 8.77999 1.17 7.71999 3.39C7.60999 3.62 7.60999 3.62 7.41999 3.62C6.54999 3.62 5.71999 3.62 5.11999 3.62H2.36999C1.69999 3.54 1.16999 3.73 0.749991 4.11C0.0699914 4.71 -0.120009 5.66 0.179991 6.48C0.559991 7.35 1.26999 7.84 2.17999 7.87C3.04999 7.87 3.90999 7.87 4.77999 7.87C5.64999 7.87 6.54999 7.87 7.37999 7.87C7.60999 7.87 7.63999 7.87 7.71999 8.1C8.77999 10.29 10.58 11.45 12.96 11.45C15.33 11.45 17.14 10.28 18.2 8.1C18.31 7.91 18.31 7.87 18.5 7.87C20.72 7.87 22.91 7.87 25.13 7.87H40.92C41.03 7.87 41.15 7.87 41.26 7.87C41.52 7.87 41.71 7.87 41.9 7.83C43.03 7.75 43.9 6.81 43.9 5.68C43.95 4.6 43.12 3.66 41.95 3.58ZM13 8.03C11.72 8.03 10.7 7.01 10.7 5.73C10.7 5.13 10.93 4.52 11.38 4.07C11.83 3.62 12.4 3.39 13.04 3.39C14.32 3.39 15.34 4.41 15.34 5.69C15.34 6.33 15.11 6.9 14.66 7.35C14.21 7.8 13.65 8.03 13 8.03Z" fill="#3778C2"/>
</svg>
