<svg width="52" height="50" viewBox="0 0 52 50" fill="none" xmlns="http://www.w3.org/2000/svg">
<path d="M35.2946 49.9798L23.4795 49.9899C23.4795 49.9899 17.7583 49.9698 12.8228 49.9698C9.08586 49.9698 6.80947 49.9798 6.04396 50H5.94323C4.40214 50 2.92148 49.3755 1.80343 48.2474C0.645086 47.0789 -0.0197001 45.4371 0.000444986 43.7752C0.0105175 42.7981 0.262331 41.9017 0.514144 41.0354L0.534289 40.9649L0.604796 40.7433C0.645086 40.5922 0.685377 40.4512 0.725667 40.2901C1.30987 38.1043 1.88401 36.1301 2.47829 34.2465C3.03227 32.504 4.18054 31.1744 5.81229 30.4089C9.80101 28.5254 13.2055 26.9943 16.8316 25.6648C17.0633 25.5842 17.2647 25.5439 17.4461 25.5439C17.8691 25.5439 18.1612 25.7453 18.3425 25.9166C19.6318 26.9742 20.77 27.6591 21.9384 28.0519C22.6737 28.3138 23.4392 28.4548 24.2047 28.4548C25.1717 28.4548 26.1185 28.2534 27.1257 27.8303C28.3244 27.3166 29.382 26.5209 30.3993 25.7554C30.5806 25.6144 30.8425 25.5338 31.0641 25.5338C31.1749 25.5338 31.2656 25.5439 31.3461 25.5842C31.3965 25.6043 35.6471 27.3267 37.0774 27.9109C35.637 28.5354 34.3276 29.4117 33.1995 30.5499C33.0685 30.6809 32.9376 30.8219 32.7966 30.973L31.6483 30.4794L31.5577 30.4391L31.4771 30.4895C31.2051 30.6305 30.9231 30.7917 30.6511 30.9629L30.5706 31.0032C30.0669 31.2953 29.5532 31.5975 29.0093 31.8493C27.4984 32.5644 25.907 32.927 24.2652 32.927C23.6809 32.927 23.0665 32.8767 22.4521 32.786C20.5887 32.504 18.8562 31.7687 17.1338 30.5701C17.0432 30.5096 16.9726 30.4693 16.9122 30.4492L16.8014 30.4391L16.7208 30.4794C16.5194 30.5902 16.3079 30.6708 16.0863 30.7615C15.9755 30.8017 15.8647 30.842 15.7539 30.8823C15.0992 31.1744 14.4344 31.4665 13.7797 31.7486C11.6745 32.6652 9.6197 33.5717 7.6052 34.4782C7.19223 34.6696 6.89005 35.0523 6.74903 35.5258C6.69867 35.697 6.64831 35.8783 6.59795 36.0495C6.54758 36.2006 6.50729 36.3517 6.45693 36.5129L6.25548 37.2079C6.05403 37.9029 5.84251 38.6079 5.65113 39.303L5.53026 39.726L5.40939 40.1591L5.3691 40.2901C5.077 41.3376 4.76475 42.4053 4.52301 43.473C4.40214 44.037 4.48272 44.5306 4.78489 44.9033C5.077 45.286 5.58062 45.4976 6.20512 45.4976H31.0943C32.1116 47.3207 33.552 48.8618 35.2946 49.9798Z" fill="#3778C2"/>
<path d="M32.9678 3.64625C30.6712 1.30943 27.579 0.020145 24.2752 0H24.2248C21.0419 0 18.0202 1.23892 15.7337 3.48509C13.417 5.76148 12.1277 8.80338 12.0975 12.0467C12.0572 15.28 13.2961 18.3521 15.5826 20.689C17.859 23.0157 20.8807 24.3151 24.0737 24.3453H24.2148C27.4581 24.3453 30.5101 23.1064 32.8066 20.84C35.1334 18.5637 36.4226 15.4915 36.4529 12.1978C36.4831 8.97462 35.2442 5.95286 32.9678 3.64625ZM24.2752 19.8832H24.1946C19.8936 19.8328 16.5496 16.3779 16.5899 12.0165C16.6201 7.917 20.1253 4.46213 24.2349 4.46213C26.3401 4.4722 28.2941 5.28807 29.7546 6.77881C31.195 8.22925 31.9807 10.133 31.9706 12.1575C31.9404 16.4081 28.4855 19.8832 24.2752 19.8832Z" fill="#3778C2"/>
<path d="M43.4231 30.56C42.99 30.4996 42.5468 30.4593 42.0935 30.4593C39.9078 30.4593 37.853 31.2349 36.2313 32.6551C36.0702 32.7961 35.9191 32.9371 35.768 33.0882C35.6572 33.199 35.5565 33.2997 35.4658 33.4105C35.2744 33.6321 35.0831 33.8638 34.9017 34.0955C34.6399 34.448 34.4082 34.8207 34.1967 35.2135C33.5117 36.5028 33.1391 37.9532 33.1491 39.4541C33.1491 40.6829 33.4009 41.8614 33.8643 42.9291C33.9751 43.191 34.106 43.4528 34.247 43.7047C34.388 43.9565 34.5391 44.1982 34.7003 44.4399C34.9017 44.7421 35.1233 45.0242 35.355 45.286C35.4255 45.3666 35.496 45.4472 35.5766 45.5278C35.6572 45.6084 35.7277 45.6889 35.7982 45.7595C37.4199 47.3811 39.656 48.3783 42.1338 48.3783C44.6016 48.3783 46.8377 47.3711 48.4594 45.7494C48.4795 45.7292 48.4996 45.7091 48.5198 45.6889C49.0033 45.1954 49.4263 44.6515 49.7789 44.0673C50.6048 42.7075 51.0782 41.1261 51.0782 39.4238C51.048 34.9315 47.7341 31.2047 43.4231 30.56ZM43.7555 44.4601C43.2317 44.6313 42.6777 44.722 42.1036 44.722C39.1725 44.722 36.7853 42.3449 36.7853 39.4138C36.7853 38.0036 37.3393 36.674 38.3365 35.6769C38.8905 35.1128 39.5553 34.6897 40.2805 34.4279C40.8546 34.2163 41.469 34.1055 42.1036 34.1055C43.5238 34.1055 44.8534 34.6595 45.8606 35.6668C46.8578 36.664 47.4118 38.0036 47.4118 39.4238C47.4017 41.7808 45.8707 43.7651 43.7555 44.4601Z" fill="#3778C2"/>
<path d="M43.9771 40.1994C43.9771 40.8642 43.6951 41.3981 43.1411 41.7506C42.8993 41.9118 42.7281 42.0226 42.5569 42.1233L42.5367 42.1434C42.3353 42.2643 42.154 42.3751 41.882 42.5564C41.6101 42.7377 41.3079 42.8284 40.9755 42.8284C40.4316 42.8284 39.928 42.5564 39.6258 42.1031C39.1222 41.3477 39.3236 40.3304 40.069 39.8368C40.2906 39.6857 40.4114 39.6152 40.5424 39.5447C40.5927 39.5145 40.6532 39.4843 40.7136 39.444C40.7035 38.6785 40.7035 37.8525 40.7035 37.0165C40.7035 36.1201 41.4388 35.3948 42.3252 35.3948C42.7785 35.3948 43.1914 35.5661 43.4936 35.8682C43.8059 36.1704 43.967 36.5834 43.967 37.0165V37.6914C43.9771 38.618 43.9771 39.5447 43.9771 40.1994Z" fill="#3778C2"/>
</svg>
