<svg width="19" height="20" viewBox="0 0 48 50" fill="none" xmlns="http://www.w3.org/2000/svg">
<path d="M35.0651 15.9359V15.9559L35.0751 16.0159C35.0751 15.9959 35.0751 15.9659 35.0651 15.9359Z" fill="#3778C2"/>
<path d="M37.3674 17.9079C37.968 17.9079 38.5485 17.6677 38.989 17.2272L39.019 17.2072L39.029 17.1972L39.039 17.1772C39.4595 16.7467 39.6997 16.1662 39.6997 15.5556V15.5055V15.4855V15.4154V15.2953C39.6597 13.013 38.5786 11.2513 36.5666 10.1802C35.5455 9.63964 34.5045 9.56957 33.7237 9.56957H33.7137C33.1532 7.40741 31.3514 5.85586 29.049 5.63564C28.5886 5.5956 28.1682 5.5956 27.7377 5.5956H27.6076C27.2673 2.38238 24.8248 0.12012 21.5315 0.04004C21.1011 0.01001 20.7107 0 20.3303 0C19.5495 0 18.7988 0.02002 18.008 0.03003H17.968C16.8168 0.0600601 15.7257 0.46046 14.7247 1.24124C13.2833 2.35235 12.4725 3.8038 12.3123 5.54555C12.2623 5.54555 12.2022 5.54555 12.1421 5.54555C11.8318 5.54555 11.5516 5.56557 11.2813 5.61562L11.0611 5.65566C10.3804 5.76577 9.51952 5.90591 8.73874 6.31632C7.46747 6.96697 6.60661 8.05806 6.1962 9.55956C5.98599 9.55956 5.77578 9.56957 5.56557 9.56957C2.85285 9.64965 0.660661 11.4915 0.11011 14.1441C0.01001 14.6747 0 15.2052 0 15.6056V44.8448C0 47.6877 2.31231 50 5.16516 50H34.5345C37.1471 50 39.3193 48.048 39.6497 45.5155C39.6997 45.3453 39.6997 45.1752 39.6997 45.0651V44.0741C39.6997 42.7928 38.6587 41.7518 37.3774 41.7518C36.7668 41.7518 36.1862 42.002 35.7457 42.4424L35.7357 42.4525L35.7257 42.4625L35.7057 42.4825C35.2853 42.9029 35.0551 43.4635 35.045 44.0741L35.025 44.4845V44.5245C35.025 44.965 34.6647 45.3253 34.2142 45.3253H5.42543C4.98498 45.3253 4.62462 44.965 4.62462 44.5245C4.62462 35.4655 4.62462 23.3634 4.62462 15.5055C4.62462 14.5646 4.97497 14.2142 5.91592 14.2142C6.02603 14.2142 6.12613 14.2142 6.21622 14.2142C6.48649 15.1351 6.91692 15.8759 7.52753 16.4865C8.60861 17.5776 9.90991 18.1381 11.4114 18.1381H21.1912C23.6336 18.1381 26.0761 18.1381 28.5085 18.1281C30.991 18.1281 33.0531 16.5265 33.6937 14.1842C34.1942 14.1942 34.5646 14.3043 34.7447 14.5045C34.8949 14.6547 34.995 14.9249 35.045 15.2753V15.5756C35.045 15.6957 35.0551 15.8158 35.0751 15.9259C35.0751 15.956 35.0851 15.986 35.0851 16.016V16.026C35.2853 17.1171 36.2462 17.9079 37.3674 17.9079ZM29.2593 12.6226C29.2492 13.2432 29.009 13.4735 28.3784 13.4835C27.1772 13.4835 25.966 13.4835 24.7548 13.4835C23.9439 13.4835 23.1431 13.4835 22.3323 13.4835H11.7017C10.8308 13.4835 10.6406 13.2933 10.6306 12.4224V12.1121C10.6206 11.7317 10.6206 11.3413 10.6406 10.951C10.6607 10.4905 10.9109 10.2402 11.3814 10.2302C11.7117 10.2202 12.0821 10.2202 12.5225 10.2202H12.8529C12.963 10.2302 13.0731 10.2302 13.1832 10.2302H14.3343C15.9459 10.2102 16.9069 9.24925 16.9269 7.65766C16.9269 7.41742 16.9269 7.18719 16.9269 6.95696C16.9269 6.62663 16.9269 6.32633 16.9269 6.07608C16.957 5.27528 17.5175 4.69469 18.2983 4.66466C18.8288 4.64464 19.3794 4.63463 19.9299 4.63463C20.4404 4.63463 21.001 4.64464 21.6416 4.66466C22.3824 4.69469 22.9229 5.25526 22.963 6.01602C22.983 6.31632 22.983 6.60661 22.983 6.98699C22.983 7.24725 22.983 7.4975 22.993 7.75776C23.033 9.25926 23.994 10.2102 25.4855 10.2302C25.7658 10.2402 26.036 10.2402 26.3163 10.2402H26.967C27.0771 10.2402 27.1972 10.2402 27.3073 10.2302H28.018C28.1481 10.2402 28.2883 10.2402 28.4184 10.2402C29.009 10.2502 29.2392 10.4705 29.2593 11.0711C29.2693 11.5415 29.2693 12.032 29.2593 12.6226Z" fill="#3778C2"/>
<path d="M22.8228 31.952C22.8228 33.2332 21.7818 34.2843 20.5005 34.2843C18.4284 34.2843 8.83885 34.2843 8.83885 34.2843C8.79881 34.2843 8.74876 34.2843 8.69871 34.2743C7.34736 34.2042 6.33635 33.2032 6.33635 31.942C6.34636 30.6106 7.36738 29.6396 8.75877 29.6396C9.69971 29.6296 20.3804 29.6296 20.4905 29.6296C21.7718 29.6296 22.8228 30.6707 22.8228 31.952Z" fill="#3778C2"/>
<path d="M25.4555 24.5946C25.4555 25.8659 24.4244 26.9069 23.1432 26.9069H8.93896C8.82885 26.9069 8.6787 26.9069 8.48851 26.8869C7.31734 26.7668 6.39641 25.7758 6.37639 24.6146C6.36638 23.4735 7.26729 22.4525 8.42845 22.2923C8.56859 22.2723 8.71874 22.2723 8.88891 22.2723H23.1432C24.4144 22.2823 25.4555 23.3233 25.4555 24.5946Z" fill="#3778C2"/>
<path d="M22.5826 39.3093C22.5826 40.5806 21.5415 41.6216 20.2703 41.6216C18.4685 41.6316 8.96898 41.6316 8.86888 41.6316C8.77879 41.6316 8.67869 41.6316 8.56858 41.6216C7.28729 41.4915 6.34635 40.4705 6.38639 39.2492C6.41642 37.978 7.42743 37.017 8.73875 37.007C9.50952 36.997 19.8398 36.997 20.2803 36.997C21.5415 37.007 22.5826 38.038 22.5826 39.3093Z" fill="#3778C2"/>
<path d="M21.4815 7.96796C21.4915 8.39839 21.3313 8.8088 21.041 9.1091C20.7507 9.39939 20.3703 9.55955 19.9599 9.55955H19.9199C19.069 9.54954 18.4284 8.86886 18.4384 7.99799C18.4384 7.12712 19.0891 6.46646 19.9399 6.45645H19.9499C20.8008 6.45645 21.4614 7.1071 21.4815 7.96796Z" fill="#3778C2"/>
<path d="M47.037 26.997C46.8568 26.3964 46.6266 25.8258 46.3363 25.2853C45.8458 24.3443 45.1952 23.4935 44.4344 22.7728C44.3443 22.6927 44.2642 22.6126 44.1742 22.5325C42.4825 21.041 40.2703 20.1301 37.8378 20.1301C32.5525 20.1301 28.2482 24.4344 28.2482 29.7197C28.2482 32.7928 29.6997 35.5255 31.9519 37.2873C32.9129 38.048 34.034 38.6186 35.2452 38.959C35.6456 39.0791 36.066 39.1592 36.4865 39.2292C36.9269 39.2893 37.3874 39.3193 37.8478 39.3193C38.1081 39.3193 38.3583 39.3093 38.6086 39.2793C39.8298 39.1892 40.981 38.8589 42.032 38.3483C43.1732 37.7978 44.1942 37.017 45.025 36.0761C46.5265 34.3844 47.4374 32.1521 47.4374 29.7197C47.4274 28.7788 47.2973 27.8579 47.037 26.997ZM37.8078 35.7157C37.6777 35.7157 37.5375 35.7157 37.4074 35.7057C37.1571 35.6857 36.9069 35.6557 36.6566 35.6056C35.2452 35.3253 33.9439 34.5045 33.0731 33.3533C33.053 33.3233 33.033 33.3033 33.013 33.2733C32.3824 32.4224 31.992 31.3914 31.8819 30.3203C31.8118 29.6496 31.8518 28.979 32.012 28.3283C32.4725 26.4064 33.9239 24.7848 35.7758 24.1041C36.4264 23.8639 37.1071 23.7437 37.8178 23.7437C38.8088 23.7437 39.7798 23.984 40.6406 24.4244C40.6707 24.4344 40.7007 24.4545 40.7307 24.4745C41.7017 25.005 42.5025 25.8158 43.053 26.8168C43.3433 27.3473 43.5435 27.9079 43.6636 28.4785C44.034 30.1702 43.6737 31.962 42.6126 33.3533C41.4915 34.8248 39.6897 35.7157 37.8078 35.7157Z" fill="#3778C2"/>
<path d="M33.3233 29.7197C33.3233 30.1201 33.4835 30.4905 33.7537 30.7507C34.014 31.021 34.3844 31.1812 34.7948 31.1812H36.3764V32.7628C36.3764 33.5736 37.037 34.2342 37.8378 34.2342C38.6486 34.2342 39.2993 33.5736 39.2993 32.7628V31.1812H40.8809C41.6917 31.1812 42.3423 30.5205 42.3423 29.7097C42.3423 28.8989 41.6817 28.2382 40.8809 28.2382H39.2993V26.6567C39.2993 25.8458 38.6386 25.1852 37.8378 25.1852C37.4374 25.1852 37.067 25.3453 36.7968 25.6156C36.5365 25.8859 36.3663 26.2462 36.3663 26.6567V28.2382H34.7848C33.974 28.2583 33.3233 28.9089 33.3233 29.7197Z" fill="#3778C2"/>
</svg>
