<svg width="46" height="50" viewBox="0 0 46 50" fill="none" xmlns="http://www.w3.org/2000/svg">
<path d="M21.4546 7.85294C21.4646 8.29294 21.3046 8.70294 21.0146 9.00294C20.7246 9.30294 20.3446 9.46294 19.9246 9.46294H19.8946C19.0346 9.44294 18.3946 8.77294 18.3946 7.88294C18.3946 7.00294 19.0546 6.33294 19.9146 6.33294H19.9246C20.7746 6.32294 21.4346 6.98294 21.4546 7.85294Z" fill="#ffffff"/>
<path d="M23.603 36.474C24.7927 36.484 25.7524 37.4537 25.7524 38.6334C25.7524 39.823 24.7927 40.7827 23.603 40.7827C21.7736 40.7927 15.1255 40.7927 13.3061 40.7927H8.83739C8.75742 40.7927 8.66744 40.7927 8.56747 40.7827C7.35783 40.6528 6.47809 39.703 6.50808 38.5734C6.53807 37.3937 7.48779 36.494 8.70743 36.484C9.4772 36.474 10.327 36.474 11.3866 36.474H23.603Z" fill="#ffffff"/>
<path d="M27.2119 33.9347H16.1752L8.60741 33.9148C7.40777 33.8748 6.46805 32.965 6.46805 31.7554C6.47805 30.5158 7.42776 29.606 8.73737 29.606C9.68709 29.596 10.6368 29.596 11.5965 29.596H27.2119C28.4115 29.596 29.3812 30.5658 29.3812 31.7654C29.3812 32.955 28.4115 33.9347 27.2119 33.9347Z" fill="#ffffff"/>
<path d="M29.8811 27.0568H8.90733C8.79736 27.0568 8.6474 27.0568 8.47745 27.0368C7.37778 26.9269 6.51804 25.9971 6.50804 24.9275C6.49804 23.8578 7.33779 22.9081 8.40747 22.7681C8.58742 22.7481 8.74737 22.7481 8.86734 22.7481H29.8811C31.0707 22.7481 32.0305 23.7178 32.0305 24.9075C32.0305 26.0871 31.0707 27.0568 29.8811 27.0568Z" fill="#ffffff"/>
<path d="M44.8567 25.0174L44.8467 25.0374C44.7067 25.2374 44.5768 25.4073 44.4068 25.6072C41.8476 28.5764 38.5286 32.4352 36.4592 34.8445L35.0196 36.534C34.7697 36.8039 34.4898 37.0339 34.1499 37.2238L32.1605 38.2235C32.0205 38.2835 31.8606 38.3235 31.7106 38.3235C31.4807 38.3235 31.2507 38.2335 31.0608 38.0735C30.7609 37.8136 30.6409 37.4237 30.7509 37.0439L31.3907 34.8945C31.5007 34.4946 31.7006 34.1447 31.9905 33.8148C32.3704 33.3849 32.9802 32.6652 33.68 31.8454C34.8597 30.4658 36.2792 28.8063 37.239 27.7166C38.2287 26.567 38.7885 25.9272 39.3383 25.2873C39.9082 24.6175 40.468 23.9677 41.4977 22.7781C42.2675 21.8883 43.4171 21.7984 44.3468 22.5581C45.0966 23.188 45.3166 24.2676 44.8567 25.0174Z" fill="#ffffff"/>
<path d="M39.6282 16.27C39.6282 15.9201 39.6282 15.5702 39.6182 15.2203C39.5783 12.991 38.5186 11.2615 36.5592 10.2218C35.4995 9.66197 34.4698 9.61199 33.63 9.62198C33.1302 7.45263 31.3407 5.8731 29.0514 5.66316C28.6115 5.62317 28.1816 5.61317 27.7518 5.61317H27.4718C27.1919 2.38413 24.7726 0.0948121 21.5036 0.0148358C20.4139 -0.0151553 19.1443 0.00483877 17.9247 0.0348299C16.805 0.0548239 15.7353 0.454705 14.7656 1.21448C13.3061 2.33415 12.5063 3.80371 12.3863 5.58318C11.9864 5.57319 11.5766 5.58318 11.2167 5.64317L11.0067 5.68315C10.3269 5.80312 9.46719 5.94308 8.70742 6.33296C7.4278 6.99276 6.58805 8.10244 6.19816 9.62198H6.09819C5.87826 9.62198 5.65832 9.63198 5.43839 9.64198C2.78917 9.71196 0.649807 11.5114 0.119964 14.1107C0.0199941 14.6205 0 15.1403 0 15.5402V44.9815C0 47.7507 2.25933 50 5.02851 50H34.6097C37.3789 50 39.6282 47.7507 39.6282 44.9815V39.853C39.6282 38.9533 39.1184 38.1935 38.2886 37.8536C37.4689 37.5137 36.5691 37.7036 35.9093 38.3635C35.5095 38.7733 35.2895 39.3032 35.2795 39.873L35.2595 44.6716C35.2595 45.2114 34.8197 45.6513 34.2698 45.6513H5.28843C4.74859 45.6513 4.30872 45.2114 4.30872 44.6716V15.4503C4.30872 14.4106 4.73859 13.9807 5.79828 13.9707H6.21815C6.47808 14.9204 6.90795 15.6902 7.52777 16.31C8.57746 17.3797 9.84708 17.9195 11.3066 17.9195L28.5415 17.9095C31.0008 17.9095 33.0402 16.3 33.62 13.9407C34.2598 13.9407 34.6997 14.0707 34.9396 14.3206C35.2196 14.6105 35.3495 15.1703 35.3195 15.9401C35.2595 17.1797 35.2695 18.4194 35.2795 19.619V20.7287C35.2895 20.9186 35.2895 21.1086 35.2895 21.2985V21.7284C35.2895 22.6181 35.7994 23.3879 36.6291 23.7278C37.4489 24.0677 38.3486 23.8778 39.0084 23.208C39.4083 22.8081 39.6282 22.2682 39.6282 21.6984V19.3191C39.6282 18.9992 39.6282 18.6793 39.6382 18.3594C39.6382 17.6796 39.6382 16.9798 39.6282 16.27ZM28.4116 13.5808L24.7527 13.5908C23.9429 13.5908 23.1331 13.5908 22.3134 13.5808H11.6166C10.6468 13.5808 10.3769 13.3109 10.3669 12.3412V12.0113C10.3669 11.6114 10.3569 11.2315 10.3769 10.8516C10.4069 10.2818 10.7368 9.96188 11.2867 9.95189C11.6166 9.95189 11.9864 9.94189 12.4463 9.94189L14.2658 9.95189C15.8053 9.93189 16.685 9.05215 16.705 7.5326V6.81282C16.705 6.5229 16.705 6.213 16.715 5.93308C16.735 5.02335 17.3748 4.37354 18.2546 4.33355C19.3842 4.29357 20.5239 4.29357 21.6336 4.33355C22.4633 4.37354 23.0931 5.01335 23.1331 5.8731C23.1531 6.193 23.1531 6.51291 23.1531 6.85281C23.1531 7.10273 23.1531 7.36266 23.1631 7.62258C23.2031 9.03216 24.0929 9.9219 25.5024 9.94189L26.3322 9.95189L27.6418 9.94189L28.4416 9.95189C29.1414 9.96188 29.4513 10.2618 29.4613 10.9616C29.4713 11.4714 29.4713 11.9813 29.4713 12.5311C29.4513 13.2609 29.1314 13.5808 28.4116 13.5808Z" fill="#ffffff"/>
</svg>
