<svg width="54" height="50" viewBox="0 0 54 50" fill="none" xmlns="http://www.w3.org/2000/svg">
<path d="M52.5256 15.9551C51.4231 14.8827 50.3107 13.7903 49.2383 12.738L48.0056 11.5254L45.7607 9.32051L45.44 8.9998C42.6839 6.30387 39.8577 3.50772 37.0615 0.771698C36.7007 0.430948 36.2698 0.170375 35.8689 0.0801764C35.6685 0.0200441 35.458 0 35.2375 0C33.8946 0 32.8322 1.11245 32.8222 2.53558C32.8122 3.47765 32.8122 4.42975 32.8122 5.37182V7.09561L32.8222 7.91742V9.5009L32.4414 9.53097C30.2866 9.6813 28.182 10.0922 26.1976 10.7236C21.7679 12.1567 18.2101 14.7625 15.6144 18.4706C12.9084 22.3592 11.2848 27.0495 10.5232 33.2231C10.4029 34.2754 10.9441 35.2576 11.9162 35.7086C12.277 35.8789 12.6378 35.9691 12.9886 35.9691C13.5699 35.9691 14.1211 35.7486 14.6422 35.3077L14.993 35.007C15.7948 34.3355 16.6466 33.614 17.4985 32.9625C21.1365 30.1964 24.7945 28.3724 28.6931 27.3702C29.986 27.0395 31.1886 26.819 32.3812 26.6987L32.8322 26.6587V28.6631C32.8322 29.1441 32.8322 29.6252 32.8222 30.0962V30.6274C32.8222 31.5594 32.8222 32.5115 32.8423 33.4536C32.8523 34.8567 33.9046 35.9591 35.2375 35.9591C35.448 35.9591 35.6585 35.929 35.8789 35.8789C36.4101 35.7386 36.8912 35.3678 37.1818 35.0772C39.8376 32.4815 42.5436 29.8256 45.1493 27.25L47.2239 25.2055C47.5045 24.9349 47.7751 24.6743 48.0457 24.4037L48.5568 23.9026C49.8597 22.6198 51.2327 21.2668 52.5957 19.9038C52.9665 19.523 53.2672 19.0319 53.3975 18.5207C53.648 17.6188 53.3674 16.7669 52.5256 15.9551ZM47.8753 18.2702L45.1594 20.9461L37.9936 27.9816L37.292 28.6731V21.8882L36.801 21.8982C29.4548 21.9182 22.7501 23.9327 16.8972 27.8713L15.925 28.5228L16.2658 27.4103C17.1377 24.544 18.3203 22.2089 19.8637 20.2646C21.9483 17.6388 24.6142 15.8549 28.0317 14.8326C30.3969 14.1211 32.8523 13.9407 34.977 13.8204C35.3778 13.8004 35.7988 13.7703 36.2197 13.7402L36.4803 13.7202C36.5905 13.7102 36.7108 13.7001 36.821 13.6901L37.292 13.6601V7.27601L37.9936 7.96753L46.5925 16.4161L47.8853 17.6789L48.186 17.9695L47.8753 18.2702Z" fill="#3778C2"/>
<path d="M46.382 41.9423C45.9511 45.8609 43.0146 49.0078 39.086 49.7895C38.4446 49.9098 37.7631 49.99 37.0615 49.99C31.4692 49.99 25.8769 50 20.2846 50C16.6667 50 13.0487 50 9.42072 49.99C5.04109 49.99 1.38304 47.1838 0.310683 43.0247C0.110243 42.283 0.0200441 41.4512 0.0200441 40.4791C0 37.0716 0 33.624 0 30.2866V22.6398L0.010022 20.2546C0.010022 17.8593 0.010022 15.474 0 13.0888C0 11.0243 0.450992 9.32051 1.40309 7.84727C3.25717 5.00101 5.88294 3.53779 9.20024 3.50772C10.5733 3.4977 12.0465 3.48768 13.8304 3.48768L15.5943 3.4977H19.6933C20.3347 3.4977 20.926 3.73823 21.357 4.16918C21.7679 4.60013 21.9984 5.16136 21.9884 5.75266C21.9784 7.01544 20.9561 7.96753 19.6131 7.97756H9.37062C6.5444 7.97756 4.4999 10.0221 4.4999 12.8383V40.5893C4.4999 43.0547 6.06334 44.979 8.38845 45.3798C8.94969 45.4801 9.51092 45.4901 9.94187 45.4901C10.1423 45.4901 10.3327 45.4801 10.5232 45.4801L10.8238 45.47H11.1545C13.7302 45.4801 16.3059 45.4801 18.8815 45.4801H31.7699L33.3033 45.4901C34.6362 45.4901 35.9491 45.4801 37.272 45.47C39.9278 45.45 41.9623 43.4255 41.9924 40.7597C42.0024 40.1483 42.0024 39.527 42.0024 38.9156V37.2019C42.0124 36.1195 42.7741 35.2175 43.8364 35.017C43.9667 34.987 44.107 34.977 44.2473 34.977C45.1493 34.977 45.9611 35.5282 46.3119 36.36C46.382 36.5304 46.4522 36.7308 46.4422 36.9413C46.4422 37.4223 46.4522 37.9234 46.4622 38.4145V38.4947C46.4823 39.6272 46.5023 40.7897 46.382 41.9423Z" fill="#3778C2"/>
</svg>
