<svg width="46" height="50" viewBox="0 0 46 50" fill="none" xmlns="http://www.w3.org/2000/svg">
<path d="M37.9238 41.4636C36.7643 41.4636 35.8147 42.4132 35.8047 43.5727V45.0621L35.7947 45.6519L35.7347 45.7218C35.6148 45.7318 35.5048 45.7318 35.3849 45.7318H4.82794C4.70799 45.7318 4.47808 45.7318 4.32815 45.7218C4.31815 45.5719 4.31815 45.332 4.31815 45.212V4.80933C4.31815 4.67938 4.31815 4.43949 4.32815 4.29955C4.47808 4.27955 4.70799 4.27955 4.82794 4.27955H24.6295V5.8089C24.6195 7.78805 24.6095 9.66725 24.6495 11.5664C24.6694 12.3261 24.8794 13.1258 25.2192 13.7655C25.9589 15.1649 27.2883 15.9046 29.0676 15.9046H35.8047C35.8047 17.9237 35.8047 24.201 35.8047 24.201C35.8047 25.3705 36.7643 26.3201 37.9238 26.3201C39.0933 26.3201 40.0429 25.3705 40.0429 24.201C40.0429 24.201 40.0829 18.2436 40.0829 17.6338C40.0829 16.7442 40.0829 15.8446 40.0729 14.955C40.0429 12.9958 39.3332 11.2466 38.0037 9.89715C35.5548 7.41821 32.9859 4.8693 30.1571 2.10049C28.7677 0.751063 27.0384 0.031371 25.1592 0.0213752C19.1218 -0.00861193 12.6646 -0.00861193 4.25818 0.031371C3.59846 0.031371 2.87877 0.201298 2.27903 0.511166C0.759675 1.28084 0 2.64025 0 4.53944V45.4619C0 45.6019 0 45.7418 0.00999573 45.8718C0.0999573 48.2208 1.89919 49.99 4.18821 50H35.8946C37.8938 50 39.5231 48.6906 39.9529 46.7314C39.9929 46.5315 40.0229 46.3416 40.0529 46.0617V43.5827C40.0529 42.4132 39.0933 41.4636 37.9238 41.4636ZM28.9076 7.09835V6.94841L33.4257 11.5964H29.1076C29.0176 11.5964 28.9576 11.5964 28.9176 11.5864C28.9076 10.1171 28.9076 8.64769 28.9076 7.09835Z" fill="#ffffff"/>
<path d="M30.8268 26.4601C30.8368 27.5596 30.0971 28.4492 29.0176 28.6091C28.8077 28.6391 28.5978 28.6491 28.3779 28.6491H28.2379C25.689 28.6591 24.1897 28.6491 22.2405 28.6491H16.6929C15.8532 28.6491 15.0436 28.6591 14.2239 28.6591C12.7446 28.6591 11.2552 28.6491 9.53593 28.6491C8.10654 28.6491 7.14695 27.7995 7.13695 26.52C7.12696 25.4305 7.89663 24.5309 8.96617 24.381C9.23606 24.351 9.52593 24.341 9.80581 24.341H28.188C28.4878 24.341 28.7277 24.341 28.9576 24.371C30.0671 24.5109 30.8168 25.3505 30.8268 26.4601Z" fill="#ffffff"/>
<path d="M7.18693 14.7151C6.94703 13.7855 7.35686 12.8159 8.17651 12.3461C8.54635 12.1462 9.00615 12.0363 9.42597 12.0263C12.7545 12.0063 15.0536 12.0063 18.3821 12.0263C19.0818 12.0263 19.6716 12.2462 20.0914 12.666C20.4712 13.0558 20.6812 13.5856 20.6712 14.1953C20.6612 15.4448 19.7616 16.3044 18.4221 16.3244C17.8024 16.3244 17.1827 16.3344 16.5629 16.3344C16.0331 16.3344 15.5034 16.3244 14.9736 16.3244H12.0349C11.1752 16.3344 10.4955 16.3344 9.33601 16.3144C8.27646 16.3044 7.43682 15.6747 7.18693 14.7151Z" fill="#ffffff"/>
<path d="M21.7207 32.6274C21.7307 33.727 20.991 34.6066 19.9215 34.7765C19.7016 34.8065 19.4817 34.8165 19.2718 34.8165H9.53593C8.11653 34.8165 7.14695 33.9569 7.13695 32.6874C7.12696 31.5979 7.89663 30.6982 8.96617 30.5483C9.24605 30.5083 9.52593 30.5083 9.80581 30.5083H19.0818C19.3617 30.5083 19.6116 30.5083 19.8515 30.5383C20.961 30.6783 21.7107 31.5179 21.7207 32.6274Z" fill="#ffffff"/>
<path d="M9.80581 18.1836H28.188C28.4578 18.1836 28.7177 18.1836 28.9576 18.2136C30.0671 18.3535 30.8168 19.1932 30.8268 20.3027C30.8368 21.4022 30.0971 22.2818 29.0176 22.4518C28.8077 22.4818 28.5878 22.4818 28.3779 22.4818L28.2379 22.4918H9.53593C8.10654 22.4918 7.14695 21.6321 7.13695 20.3627C7.12696 19.2731 7.89663 18.3735 8.96617 18.2236C9.23606 18.1836 9.52593 18.1836 9.80581 18.1836Z" fill="#ffffff"/>
<path d="M16.6729 37.3254C17.0627 37.7152 17.2626 38.245 17.2626 38.8548C17.2526 40.1042 16.343 40.9539 15.0136 40.9838H14.2439C14.2239 40.9838 14.1939 40.9739 14.1739 40.9739L14.1639 40.9838H11.0753C10.5755 40.9838 10.0457 40.9839 9.33601 40.9739C8.27646 40.9639 7.43682 40.3341 7.18693 39.3745C6.94703 38.4549 7.36685 37.4554 8.1765 37.0056C8.53635 36.8156 8.98616 36.6957 9.42597 36.6857L10.8454 36.6757H14.9736C15.6733 36.6857 16.263 36.9056 16.6729 37.3254Z" fill="#ffffff"/>
<path d="M43.6213 32.4075C40.5527 32.7873 35.4348 38.395 32.776 42.2433C32.3262 42.873 31.6165 43.2429 30.8668 43.2429L30.7169 43.2329C29.8872 43.1729 29.1575 42.6931 28.7977 41.9634C27.6982 39.7544 25.5091 37.0555 25.0793 36.5357C24.6694 36.046 24.4795 35.4462 24.5395 34.8365C24.5895 34.2167 24.8794 33.667 25.3492 33.2671C25.819 32.8773 26.4187 32.6874 27.0284 32.7374C27.6482 32.7874 28.1979 33.0772 28.5978 33.547C28.6078 33.567 29.8272 35.0064 31.0767 36.8256C33.8155 33.4371 38.5835 28.3792 43.0516 27.8295C43.6613 27.7495 44.2711 27.9094 44.7509 28.2893C45.2407 28.6691 45.5505 29.2189 45.6305 29.8286C45.7804 31.0881 44.8808 32.2476 43.6213 32.4075Z" fill="#ffffff"/>
</svg>
