<svg width="46" height="50" viewBox="0 0 46 50" fill="none" xmlns="http://www.w3.org/2000/svg">
<path d="M20.6658 40.4504C20.6658 41.7056 19.7218 42.6093 18.3662 42.6093C17.8541 42.6194 17.3922 42.6194 16.9604 42.6194C16.5085 42.6194 16.0767 42.6194 15.6248 42.6093C15.1328 42.6093 14.6207 42.5993 14.0182 42.5993H8.94713C7.88271 42.5993 6.97896 41.9165 6.75805 40.9324C6.52709 39.9583 6.96892 38.9441 7.81242 38.5224C8.1438 38.3316 8.61576 38.2211 9.07767 38.2211C12.4015 38.191 15.0023 38.191 18.3461 38.2211C19.0491 38.2211 19.6817 38.4521 20.1034 38.8939C20.4951 39.2956 20.6858 39.8378 20.6658 40.4504Z" fill="#ffffff"/>
<path d="M40.0864 14.9746C40.0562 12.9764 39.3533 11.2693 38.0077 9.89356C35.0254 6.88106 32.5451 4.40076 30.1853 2.10122C28.7895 0.745594 27.0523 0.0225938 25.1544 0.0225938C18.2256 -0.00753126 11.2165 -0.00753126 4.31792 0.0225938C3.63509 0.0225938 2.92213 0.203344 2.30958 0.524677C0.803334 1.2778 0 2.68364 0 4.59156V45.8428C0.110458 48.2126 1.928 50 4.22754 50H21.0473C22.2523 50 23.2264 49.0159 23.2264 47.7908C23.2264 46.5858 22.2523 45.6118 21.0473 45.6118H4.86017C4.76979 45.6118 4.56896 45.6118 4.42838 45.6017C4.41834 45.4511 4.41834 45.2302 4.41834 45.1298V4.83256C4.41834 4.73214 4.41834 4.51122 4.42838 4.3606C4.56896 4.35055 4.76979 4.35055 4.86017 4.35055H23.6883C24.1703 4.35055 24.5619 4.75222 24.5619 5.23422V5.58568C24.5519 7.64422 24.5519 9.59231 24.6021 11.5404C24.6021 12.2835 24.8029 13.0969 25.1644 13.7696C25.9075 15.1956 27.2531 15.9487 29.0606 15.9487H34.8546C35.3366 15.9487 35.7383 16.3403 35.7383 16.8223V19.7545C35.7383 20.9595 36.7124 21.9335 37.9174 21.9335C39.1224 21.9335 40.0964 20.9595 40.0964 19.7545V16.511C40.0964 15.6876 40.0964 15.1454 40.0864 14.9746ZM29.0907 11.5605C29.0305 11.5605 28.9903 11.5605 28.9501 11.5504V7.10197C29.5828 7.75468 30.2054 8.38731 30.8279 9.01993C31.6614 9.88352 32.4848 10.727 33.2982 11.5605H29.0907Z" fill="#ffffff"/>
<path d="M31.8321 20.3871C31.8321 21.5118 31.0589 22.4155 29.9643 22.5862C29.7133 22.6264 29.4422 22.6264 29.161 22.6264C25.5862 22.5963 23.7285 22.5963 20.1637 22.5963H9.14796C7.70196 22.5963 6.69779 21.7026 6.69779 20.4172C6.69779 19.2926 7.49108 18.3788 8.58563 18.2482C8.84671 18.2081 9.14796 18.2081 9.41909 18.2081H29.1309C29.402 18.2081 29.643 18.2081 29.9242 18.2482C31.0388 18.3788 31.8321 19.2524 31.8321 20.3871Z" fill="#ffffff"/>
<path d="M24.3209 27.0347C24.3209 28.1594 23.5477 29.0732 22.4532 29.2338C22.2122 29.274 21.931 29.274 21.6498 29.274C18.075 29.2439 12.8031 29.2439 9.14796 29.2439C7.70196 29.2439 6.69779 28.3502 6.69779 27.0648C6.69779 25.9402 7.49108 25.0264 8.57558 24.8958C8.84671 24.8557 9.14796 24.8557 9.41909 24.8557C18.8281 24.8557 22.1419 24.8657 22.403 24.8958C23.5276 25.0264 24.3209 25.91 24.3209 27.0347Z" fill="#ffffff"/>
<path d="M20.5553 33.6823C20.5553 34.8069 19.7921 35.7107 18.6876 35.8814C18.4466 35.9216 18.1654 35.9216 17.8943 35.9216C14.3194 35.8914 12.8031 35.8914 9.14796 35.8914C7.70196 35.8914 6.69779 34.9977 6.69779 33.7124C6.69779 32.5877 7.49108 31.6739 8.57558 31.5434C8.84671 31.5032 9.14796 31.5032 9.41909 31.5032H17.8641C18.1353 31.5032 18.3662 31.5032 18.6373 31.5434C19.772 31.6739 20.5553 32.5476 20.5553 33.6823Z" fill="#ffffff"/>
<path d="M21.3586 13.8198C21.3586 15.0851 20.4047 15.9788 19.0591 15.9788H8.95717C7.88271 15.9788 6.98901 15.296 6.75805 14.3119C6.52709 13.3378 6.96892 12.3236 7.81242 11.9019C8.15384 11.7111 8.6258 11.5906 9.07767 11.5906C12.4216 11.5605 15.6751 11.5605 19.029 11.5906C19.7419 11.5906 20.3645 11.8316 20.7863 12.2634C21.1779 12.6751 21.3787 13.2073 21.3586 13.8198Z" fill="#ffffff"/>
<path d="M33.1978 40.3198L30.4966 38.3416C29.7736 37.8195 29.5225 36.8153 29.9744 36.0521C30.4966 35.1785 31.6513 34.9576 32.4547 35.54L33.5091 36.3132C33.6998 36.4538 33.9509 36.4739 34.1618 36.3634L37.2646 34.7467C38.0579 34.335 39.0621 34.5459 39.5441 35.299C40.0964 36.1626 39.7851 37.2872 38.9014 37.7492L33.8505 40.37C33.6496 40.4705 33.3886 40.4604 33.1978 40.3198Z" fill="#ffffff"/>
<path d="M34.9852 26.9042C34.9751 26.9042 34.9751 26.9042 34.9651 26.9042V26.2816H35.5475C36.14 26.2816 36.622 25.7996 36.622 25.2071C36.622 24.6147 36.14 24.1327 35.5475 24.1327H32.2338C31.6413 24.1327 31.1593 24.6147 31.1593 25.2071C31.1593 25.7996 31.6413 26.2816 32.2338 26.2816H32.8162V26.9042H32.8061C26.9719 27.4665 22.5737 32.3066 22.5737 38.1709C22.5737 44.4068 27.6548 49.4879 33.8906 49.4879C40.1265 49.4879 45.2076 44.4068 45.2076 38.1709C45.2076 32.3066 40.8094 27.4665 34.9852 26.9042ZM33.8906 45.9633C29.6028 45.9633 26.1184 42.4788 26.1184 38.201C26.1184 33.9132 29.6028 30.4288 33.8906 30.4288C38.1684 30.4288 41.6629 33.9132 41.6629 38.201C41.6629 42.4788 38.1684 45.9633 33.8906 45.9633Z" fill="#ffffff"/>
</svg>
