<svg width="20" height="29" viewBox="0 0 20 29" fill="none" xmlns="http://www.w3.org/2000/svg">
<path d="M19.9939 9.45263L19.9778 9.46677C19.9778 9.39404 19.9778 9.32132 19.9798 9.24657C19.9818 8.72334 19.9838 8.18192 19.9737 7.64455C19.9535 6.5597 19.4384 5.7193 18.4848 5.21425C18 4.95566 17.5051 4.92132 17.1273 4.92132C17.0667 4.92132 17.004 4.92334 16.9354 4.92536C16.7313 3.81425 15.8424 3.00213 14.699 2.89304C14.4747 2.87283 14.2626 2.87283 14.0465 2.87283H13.9253C13.8747 2.87283 13.8222 2.87283 13.7677 2.87081C13.6889 1.22435 12.4909 0.0465707 10.8465 0.00818684C10.2889 -0.00797477 9.61414 0.00212624 9.02626 0.0182879C8.48485 0.0304091 7.9697 0.222328 7.49293 0.587985C6.74142 1.1698 6.3495 1.93546 6.33131 2.86475C6.2303 2.86071 6.12727 2.85465 6.02424 2.85465C5.86666 2.85465 5.73939 2.86475 5.6202 2.88697L5.50707 2.90718C5.14949 2.96576 4.74545 3.03243 4.37172 3.22435C3.72929 3.55768 3.31515 4.1294 3.1394 4.92536L2.97374 4.92334C2.86263 4.92334 2.75152 4.92536 2.64041 4.9294C1.35354 4.96576 0.313132 5.83647 0.0545463 7.09909C0.00606147 7.3496 0 7.60617 0 7.80213V26.5476C0 27.8829 1.08687 28.9698 2.42424 28.9698H17.5535C18.8889 28.9698 19.9758 27.885 19.9758 26.5496L19.9778 23.5678C19.9798 20.9355 19.9818 17.289 19.9838 16.4122V12.1819L20 12.1658V9.71324L19.9939 9.45263ZM6.21818 4.79607L7.15152 4.79809C7.85455 4.79203 8.24445 4.40415 8.25253 3.70314C8.25455 3.58394 8.25454 3.46273 8.25454 3.34152C8.25252 3.19 8.25253 3.03445 8.25657 2.88293C8.27475 2.3496 8.66465 1.94758 9.18384 1.92738C9.43636 1.9193 9.71515 1.91324 10.0343 1.91324C10.3293 1.91324 10.6303 1.9193 10.9232 1.9294C11.4222 1.9496 11.804 2.33748 11.8303 2.84859C11.8404 3.00819 11.8404 3.16172 11.8384 3.36172C11.8384 3.48899 11.8384 3.61829 11.8424 3.75162C11.8626 4.39607 12.2566 4.78596 12.897 4.79607C13.0364 4.79809 13.1778 4.79809 13.3192 4.79809L13.9919 4.79607C14.1293 4.79607 14.2667 4.79809 14.4 4.80011C14.8404 4.80617 15.0586 5.02233 15.0667 5.45869C15.0727 5.75566 15.0747 6.01223 15.0687 6.26879C15.0606 6.72334 14.8364 6.94354 14.3859 6.94556C13.3495 6.94758 12.3071 6.95162 11.2667 6.94758H5.79596C5.2202 6.94556 5.01616 6.74152 5.01212 6.1698V5.98596C5.0101 5.78192 5.00808 5.58798 5.01818 5.39404C5.03839 5.03243 5.26465 4.81021 5.62424 4.80415C5.79596 4.79809 5.98182 4.79607 6.21818 4.79607ZM18.0606 8.01223C18.0364 8.60616 18.0384 9.20819 18.0404 9.78798V9.99202C18.0444 10.4001 18.0485 10.8607 18.0404 11.3011V15.192L18.0323 15.2001V26.388C18.0323 26.7456 17.7414 27.0365 17.3818 27.0365H2.5596C2.20202 27.0365 1.91111 26.7456 1.91111 26.388C1.91111 21.7254 1.91111 11.8041 1.91313 7.75768C1.91313 7.13546 2.19192 6.85869 2.81616 6.85667C2.87879 6.85465 2.93939 6.85465 3.00202 6.85465H3.14546C3.26869 7.37182 3.48081 7.76778 3.80404 8.09505C4.31515 8.61223 4.93333 8.87485 5.6404 8.87485H10.6768C11.9333 8.87485 13.1919 8.87485 14.4505 8.87283C15.6788 8.87081 16.6869 8.04253 16.9293 6.84657C17.3616 6.82435 17.6606 6.90112 17.8283 7.07687C18 7.25667 18.0788 7.5698 18.0606 8.01223Z" fill="#ffffff"/>
<path d="M8.39795 17.1536H5.36764C4.52926 17.1536 3.84644 16.4708 3.84644 15.6324V12.6021C3.84644 11.7637 4.52926 11.0809 5.36764 11.0809H8.39795C9.23633 11.0809 9.91916 11.7637 9.91916 12.6021V15.6324C9.91916 16.4708 9.23633 17.1536 8.39795 17.1536ZM5.46259 15.5375H8.303V12.6971H5.46259V15.5375Z" fill="#ffffff"/>
<path d="M8.39795 25.2344H5.36764C4.52926 25.2344 3.84644 24.5516 3.84644 23.7132V20.6829C3.84644 19.8445 4.52926 19.1617 5.36764 19.1617H8.39795C9.23633 19.1617 9.91916 19.8445 9.91916 20.6829V23.7132C9.91916 24.5516 9.23633 25.2344 8.39795 25.2344ZM5.46259 23.6183H8.303V20.7779H5.46259V23.6183Z" fill="#ffffff"/>
<path d="M15.8724 16.1536H11.9634C11.5169 16.1536 11.1553 15.792 11.1553 15.3455C11.1553 14.8991 11.5169 14.5374 11.9634 14.5374H15.8724C16.3189 14.5374 16.6805 14.8991 16.6805 15.3455C16.6805 15.792 16.3189 16.1536 15.8724 16.1536Z" fill="#ffffff"/>
<path d="M15.8726 13.5173H11.9635C11.517 13.5173 11.1554 13.1556 11.1554 12.7092C11.1554 12.2627 11.517 11.9011 11.9635 11.9011H15.8726C16.319 11.9011 16.6806 12.2627 16.6806 12.7092C16.6806 13.1556 16.319 13.5173 15.8726 13.5173Z" fill="#ffffff"/>
<path d="M15.8724 24.3253H11.9634C11.5169 24.3253 11.1553 23.9637 11.1553 23.5172C11.1553 23.0708 11.5169 22.7092 11.9634 22.7092H15.8724C16.3189 22.7092 16.6805 23.0708 16.6805 23.5172C16.6805 23.9637 16.3189 24.3253 15.8724 24.3253Z" fill="#ffffff"/>
<path d="M15.8726 21.687H11.9635C11.517 21.687 11.1554 21.3254 11.1554 20.8789C11.1554 20.4324 11.517 20.0708 11.9635 20.0708H15.8726C16.319 20.0708 16.6806 20.4324 16.6806 20.8789C16.6806 21.3254 16.319 21.687 15.8726 21.687Z" fill="#ffffff"/>
<path d="M10.9433 3.91931C10.9473 4.17588 10.8544 4.41628 10.6807 4.59406C10.511 4.7678 10.2847 4.86275 10.0383 4.86275L10.0181 4.86073C9.513 4.85063 9.1332 4.45265 9.13724 3.93346C9.13926 3.41628 9.5231 3.02437 10.0281 3.02032H10.0362C10.5433 3.02032 10.9312 3.40618 10.9433 3.91931Z" fill="#ffffff"/>
</svg>
