<svg width="22" height="22" viewBox="0 0 51 50" fill="none" xmlns="http://www.w3.org/2000/svg">
<path d="M43.2873 30.1566H7.62822C3.45816 30.1566 0.0610886 26.7596 0.0610886 22.5793V7.56713C0.0610886 3.39707 3.45816 0 7.62822 0H43.2873C47.4573 0 50.8544 3.39707 50.8544 7.56713V22.5793C50.8544 26.7596 47.4573 30.1566 43.2873 30.1566ZM7.62822 4.37347C5.86866 4.37347 4.43456 5.80757 4.43456 7.56713V22.5793C4.43456 24.3389 5.86866 25.773 7.62822 25.773H43.2873C45.0469 25.773 46.4809 24.3389 46.4809 22.5793V7.56713C46.4809 5.80757 45.0469 4.37347 43.2873 4.37347H7.62822Z" fill="#ffffff"/>
<path d="M2.22742 40.9276C3.45759 40.9276 4.45484 39.9303 4.45484 38.7001C4.45484 37.47 3.45759 36.4727 2.22742 36.4727C0.99725 36.4727 0 37.47 0 38.7001C0 39.9303 0.99725 40.9276 2.22742 40.9276Z" fill="#ffffff"/>
<path d="M48.6677 40.8971H9.47929C8.26896 40.8971 7.29256 39.9207 7.29256 38.7103C7.29256 37.5 8.26896 36.5236 9.47929 36.5236H48.6677C49.878 36.5236 50.8544 37.5 50.8544 38.7103C50.8544 39.9207 49.878 40.8971 48.6677 40.8971Z" fill="#ffffff"/>
<path d="M2.22742 50C3.45759 50 4.45484 49.0027 4.45484 47.7726C4.45484 46.5424 3.45759 45.5451 2.22742 45.5451C0.99725 45.5451 0 46.5424 0 47.7726C0 49.0027 0.99725 50 2.22742 50Z" fill="#ffffff"/>
<path d="M48.6677 49.9593H9.47929C8.26896 49.9593 7.29256 48.9829 7.29256 47.7726C7.29256 46.5622 8.26896 45.5858 9.47929 45.5858H48.6677C49.878 45.5858 50.8544 46.5622 50.8544 47.7726C50.8544 48.9829 49.878 49.9593 48.6677 49.9593Z" fill="#ffffff"/>
</svg>
