<svg width="18" height="18" viewBox="0 0 5 25" fill="none" xmlns="http://www.w3.org/2000/svg">
<path d="M2.19 4.38C3.3995 4.38 4.38 3.3995 4.38 2.19C4.38 0.980496 3.3995 0 2.19 0C0.980496 0 0 0.980496 0 2.19C0 3.3995 0.980496 4.38 2.19 4.38Z" fill="#ffffff"/>
<path d="M2.19 14.26C3.3995 14.26 4.38 13.2795 4.38 12.07C4.38 10.8605 3.3995 9.88 2.19 9.88C0.980496 9.88 0 10.8605 0 12.07C0 13.2795 0.980496 14.26 2.19 14.26Z" fill="#ffffff"/>
<path d="M2.19 24.15C3.3995 24.15 4.38 23.1695 4.38 21.96C4.38 20.7505 3.3995 19.77 2.19 19.77C0.980496 19.77 0 20.7505 0 21.96C0 23.1695 0.980496 24.15 2.19 24.15Z" fill="#ffffff"/>
</svg>
