<svg width="967" height="157" viewBox="0 0 967 157" fill="none" xmlns="http://www.w3.org/2000/svg">
<path d="M117.12 98.3501C117.14 81.9901 110.35 67.0901 99.49 56.5301C93.54 50.7501 86.48 46.2201 78.59 43.3401C78.02 43.1201 77.45 42.9201 76.85 42.7701C76.03 42.5001 75.17 42.3701 74.27 42.3701C69.78 42.3701 66.09 45.7901 65.64 50.1501V51.9301C65.96 55.0801 67.97 57.7101 70.75 58.9501C70.8 58.9701 70.85 59.0001 70.9 59.0201C71.32 59.1201 71.74 59.2701 72.16 59.4201C72.18 59.4401 72.18 59.4401 72.21 59.4401C74.44 60.2101 76.57 61.1501 78.58 62.2901C83.31 64.9401 87.48 68.4901 90.85 72.7001C92.31 74.5301 93.58 76.4701 94.69 78.4801C97.15 82.9201 98.76 87.8001 99.47 93.0301C99.67 94.7401 99.82 96.5201 99.84 98.3301C99.82 100.19 99.67 101.95 99.47 103.76C98.82 108.41 97.31 112.89 95.27 116.95C95.03 117.42 94.87 117.93 94.61 118.39C94.56 118.49 94.49 118.58 94.44 118.68C93.32 120.67 91.98 122.51 90.55 124.28C89.49 125.59 88.27 126.74 87.06 127.91C86.26 128.68 85.53 129.51 84.67 130.21C82.77 131.78 80.77 133.23 78.6 134.43C77.4 135.1 76.09 135.6 74.82 136.15C73.78 136.6 72.8 137.12 71.71 137.49C71.44 137.57 71.18 137.66 70.91 137.74C68.63 138.46 66.29 139.04 63.9 139.37C62.09 139.57 60.33 139.72 58.47 139.74C56.66 139.72 54.88 139.57 53.16 139.37C50.76 139.04 48.45 138.47 46.21 137.77C46.18 137.76 46.16 137.73 46.12 137.72C45.8 137.6 45.48 137.47 45.15 137.4C44.85 137.3 44.56 137.16 44.27 137.06C42.74 136.5 41.26 135.85 39.82 135.12C39.38 134.9 38.92 134.69 38.49 134.45C36.16 133.15 33.98 131.61 31.96 129.89C31.76 129.72 31.59 129.52 31.39 129.34C29.55 127.72 27.82 125.97 26.3 124.04C25.19 122.66 24.19 121.2 23.26 119.67C22.96 119.16 22.62 118.67 22.35 118.16C19.97 113.82 18.33 108.86 17.62 103.76C17.4 101.98 17.25 100.19 17.25 98.3301C17.25 96.5501 17.4 94.7601 17.62 93.0301C18.31 87.8001 19.95 82.9101 22.4 78.5301C23.49 76.5001 24.78 74.5401 26.24 72.7001C29.59 68.5101 33.75 64.9401 38.48 62.2901C40.64 61.1001 42.92 60.0801 45.32 59.2901C48.84 58.2001 51.42 54.9001 51.42 51.0101C51.42 46.2301 47.53 42.3301 42.74 42.3301C41.92 42.3301 41.13 42.4501 40.38 42.6801C40.01 42.7501 39.66 42.8801 39.34 43.0001C39.04 43.1001 38.77 43.2001 38.47 43.3001C30.59 46.2001 23.55 50.7401 17.6 56.5101C6.74 67.1101 0 81.9601 0 98.3501C0 104.71 1.03 110.82 2.89 116.54C2.91 116.61 2.9 116.69 2.92 116.76C3.07 117.35 3.27 117.92 3.49 118.49C3.66 118.96 3.9 119.4 4.08 119.87C4.28 120.38 4.51 120.87 4.72 121.37C5.51 123.21 6.39 125 7.35 126.74C7.64 127.27 7.93 127.8 8.24 128.32C8.79 129.24 9.37 130.14 9.97 131.03C10.09 131.2 10.19 131.38 10.3 131.55C10.44 131.75 10.6 131.92 10.74 132.11C11.8 133.61 12.93 135.06 14.13 136.46C14.28 136.63 14.4 136.83 14.55 137C14.69 137.16 14.86 137.29 15 137.45C15.57 138.09 16.09 138.76 16.69 139.37C27.25 150.23 42.15 157.02 58.51 157C64.95 157 71.11 155.93 76.89 154.02C77.16 153.94 77.44 153.85 77.7 153.76C78.02 153.66 78.32 153.54 78.64 153.44C79.7 153.05 80.69 152.53 81.72 152.09C82.81 151.62 83.93 151.19 84.99 150.65C86.68 149.79 88.28 148.8 89.87 147.78C90.48 147.39 91.14 147.09 91.73 146.69C93.66 145.35 95.45 143.99 97.16 142.48C99.08 140.78 100.88 138.95 102.57 137.03C102.58 137.02 102.6 137 102.61 136.99C102.89 136.67 103.13 136.29 103.4 135.97C106.36 132.44 108.94 128.59 111.01 124.44C111.24 123.98 111.41 123.49 111.63 123.02C112.32 121.54 113.04 120.07 113.61 118.52C113.71 118.2 113.83 117.9 113.93 117.58C114.08 117.16 114.23 116.71 114.35 116.27C114.35 116.25 114.35 116.24 114.36 116.22C116.15 110.58 117.12 104.59 117.12 98.3501Z" fill="#3C79BC"/>
<path d="M71.66 12.82C71.66 19.9 65.92 25.64 58.84 25.64C51.76 25.64 46.02 19.9 46.02 12.82C46.02 5.74 51.76 0 58.84 0C65.92 0 71.66 5.74 71.66 12.82Z" fill="#3C79BC"/>
<path d="M962.02 139.72C959.33 144.5 955.26 148.34 949.78 151.23C944.31 154.13 937.6 155.58 929.65 155.58C921.92 155.58 914.99 154.21 908.88 151.47C902.76 148.73 897.88 144.9 894.23 139.96C893.44 138.89 892.72 137.78 892.07 136.64C888.6 130.5 893.04 122.89 900.09 122.89H900.54C904.37 122.89 907.62 125.34 909.15 128.85C910.23 131.33 911.83 133.58 913.95 135.61C917.66 139.15 922.62 140.92 928.84 140.92C934.42 140.92 938.74 139.42 941.8 136.41C944.86 133.41 946.39 129.54 946.39 124.82C946.39 120.74 945.26 117.39 943.01 114.76C940.76 112.13 937.96 110.06 934.64 108.56C931.31 107.06 926.75 105.34 920.95 103.41C913.86 101.16 908.09 98.9001 903.64 96.6501C899.19 94.4001 895.4 91.1201 892.29 86.8301C889.18 82.5401 887.62 76.9001 887.62 69.9201C887.62 63.8001 889.12 58.4401 892.13 53.8201C895.13 49.2101 899.43 45.6401 905.01 43.1101C910.59 40.5901 917.03 39.3301 924.33 39.3301C935.92 39.3301 945.13 42.1201 951.94 47.7001C954.56 49.8501 956.76 52.2501 958.51 54.9101C962.67 61.2001 958.1 69.6001 950.56 69.6001C946.91 69.6001 943.67 67.4601 942.03 64.1901C940.99 62.1301 939.57 60.2501 937.77 58.5701C934.49 55.5101 930.01 53.9801 924.33 53.9801C919.18 53.9801 915.04 55.2901 911.93 57.9201C908.82 60.5501 907.26 64.3401 907.26 69.2701C907.26 73.1301 908.33 76.3301 910.48 78.8501C912.63 81.3701 915.34 83.3601 918.61 84.8101C921.88 86.2601 926.36 87.9501 932.06 89.8801C939.25 92.1301 945.13 94.4201 949.69 96.7201C954.25 99.0301 958.12 102.38 961.28 106.79C964.45 111.19 966.03 116.99 966.03 124.18C966.05 129.77 964.7 134.95 962.02 139.72Z" fill="#3C79BC"/>
<path d="M545.91 145.64C545.91 150.37 542.07 154.21 537.34 154.21H506.08C495.67 154.21 487.23 145.77 487.23 135.36V49.1804C487.23 44.4504 491.07 40.6104 495.8 40.6104C500.53 40.6104 504.37 44.4504 504.37 49.1804V130.54C504.37 134.14 507.29 137.07 510.89 137.07H537.33C542.07 137.07 545.91 140.91 545.91 145.64Z" fill="#3C79BC"/>
<path d="M264.22 115.96H263.98C260.63 115.96 257.6 117.86 255.94 120.79C253.32 125.34 249.84 129.14 245.45 132.14C239.59 136.18 232.41 138.21 223.93 138.21C217.17 138.21 211.13 136.52 205.82 133.21C200.51 129.86 196.33 125.14 193.26 118.96C190.19 112.79 188.67 105.61 188.67 97.44C188.67 89.2 190.19 81.99 193.26 75.81C196.33 69.64 200.5 64.88 205.82 61.53C211.13 58.22 217.17 56.56 223.93 56.56C232.42 56.56 239.59 58.56 245.45 62.6C249.83 65.64 253.35 69.47 255.94 74.09C257.6 77.02 260.63 78.95 264.01 78.95H264.22C271.36 78.95 275.64 71.22 272.08 65.02C268.77 59.19 264.42 54.22 259.04 50.12C249.8 43.05 238.21 39.5 224.27 39.5C213.51 39.5 204.02 41.98 195.74 46.91C187.49 51.84 181.11 58.67 176.6 67.44C172.08 76.17 169.84 86.2 169.84 97.45C169.84 108.73 172.08 118.73 176.6 127.49C181.12 136.25 187.5 143.05 195.74 147.94C204.02 152.84 213.5 155.25 224.27 155.25C238.21 155.25 249.8 151.73 259.04 144.73C264.39 140.62 268.73 135.69 272.08 129.9C275.64 123.72 271.36 115.96 264.22 115.96Z" fill="#3C79BC"/>
<path d="M421.59 43.3201C419.94 41.6601 417.62 40.6301 415.1 40.6301C410.03 40.6301 405.93 44.7401 405.93 49.8101V108.11C405.93 118.18 403.69 125.7 399.24 130.63C394.79 135.56 388.58 138.04 380.65 138.04C372.58 138.04 366.33 135.56 361.88 130.63C357.43 125.7 355.19 118.18 355.19 108.11V49.8001C355.19 44.7301 351.08 40.6201 346.01 40.6201C340.94 40.6201 336.83 44.7301 336.83 49.8001V108.1C336.83 123.66 340.8 135.42 348.73 143.42C356.7 151.42 367.22 155.42 380.29 155.42C393.5 155.42 404.13 151.42 412.2 143.42C420.24 135.42 424.27 123.65 424.27 108.1V49.8001C424.28 47.2501 423.24 44.9701 421.59 43.3201Z" fill="#3C79BC"/>
<path d="M828.07 105.51C823.83 100.37 818.27 97.0899 811.38 95.6799C817.52 94.1999 822.45 91.1999 826.21 86.7499C829.97 82.2999 831.83 76.4699 831.83 69.2599C831.83 60.3599 828.79 53.3599 822.76 48.2499C816.69 43.1799 807.96 40.6299 796.58 40.6299H765.6C758.15 40.6299 752.11 46.6299 752.11 54.0799V140.83C752.11 148.28 758.15 154.28 765.6 154.28H797.37C809.41 154.28 818.58 151.52 824.93 146C831.24 140.48 834.42 133 834.42 123.54C834.41 116.69 832.31 110.65 828.07 105.51ZM770.5 55.5999H792.54C799.41 55.5999 804.55 57.0799 807.93 60.0799C811.31 63.1199 813 67.2199 813 72.4999C813 77.8399 811.31 82.0499 807.93 85.0499C804.55 88.0499 799.65 89.5699 793.2 89.5699H770.5V55.5999ZM809.85 134.42C806.06 137.59 800.64 139.18 793.67 139.18H770.5V102.93H793.51C800.51 102.93 805.93 104.55 809.79 107.76C813.65 111 815.58 115.45 815.58 121.14C815.58 126.83 813.68 131.24 809.85 134.42Z" fill="#3C79BC"/>
<path d="M692.31 141.97L690.52 137.17L683.82 119.2L683.75 119L677.05 101.03L658.89 52.2704C657.76 49.3304 655.81 46.8104 653.3 45.1204C650.83 43.3804 647.8 42.4004 644.63 42.4004C638.27 42.4004 632.63 46.3204 630.41 52.2504L612.17 101.04L605.42 119.01L605.35 119.21L598.61 137.18L596.84 141.98C596.45 143.07 596.25 144.15 596.25 145.2C596.25 150.05 600.17 154.3 605.4 154.3C609.27 154.3 612.71 151.9 614.03 148.26L617.9 137.19L620.55 129.67L624.38 119.21L624.47 119.01H664.7L664.79 119.21L668.57 129.67L671.22 137.19L675.11 148.26C676.44 151.9 679.89 154.3 683.71 154.3H683.76C690.13 154.29 694.55 147.92 692.31 141.97ZM630.85 101.02L644.55 62.3304L658.31 101.02H630.85Z" fill="#3C79BC"/>
<path d="M934.89 21.6999V7.13992H929.16V4.41992H943.82V7.12992H938.09V21.6999H934.89Z" fill="black"/>
<path d="M965.14 21.6897H962.1L962.08 10.2597L956.41 19.7297H954.97L949.3 10.4097V21.6897H946.24V4.42969H948.87L955.73 15.8597L962.47 4.42969H965.12L965.14 21.6897Z" fill="black"/>
</svg>
