<svg width="45" height="50" viewBox="0 0 45 50" fill="none" xmlns="http://www.w3.org/2000/svg">
<path d="M8.01471 15.8151C7.75444 10.8901 9.15587 6.5857 12.9998 3.34239C15.8327 0.939936 19.1461 -0.161187 22.8498 0.0189968C29.2364 0.269252 36.8441 5.79489 36.2335 15.8151C36.8241 15.9653 37.4447 16.0654 38.0454 16.2656C41.7291 17.5169 44.1015 20.64 44.1516 24.544C44.2117 30.1197 44.2217 35.6754 44.1516 41.2511C44.0915 46.2562 40.2276 49.98 35.1924 50C26.4535 50 17.7146 50 8.96568 50C3.92053 49.97 0.0465781 46.1461 0.0165475 41.1009C-0.0134831 35.7955 0.00653728 30.5001 0.00653728 25.1947C0.00653728 20.3397 2.66925 17.0163 7.38407 15.9653C7.56425 15.9152 7.73442 15.8952 8.01471 15.8151ZM22.1191 20.0995C17.8447 20.0995 13.5704 20.0695 9.29602 20.0995C6.09275 20.0995 4.30092 21.9013 4.30092 25.0746C4.30092 30.2999 4.30092 35.5252 4.30092 40.7305C4.30092 43.9338 6.06272 45.7857 9.25598 45.7857C17.8047 45.8057 26.3534 45.8057 34.9021 45.7857C38.1154 45.7857 39.9473 43.8838 39.9473 40.6805C39.9473 35.5252 39.9473 30.38 39.9473 25.2247C39.9473 21.9514 38.1054 20.0995 34.8321 20.0995C30.5877 20.0695 26.3534 20.0995 22.1191 20.0995ZM12.3291 15.7951C18.8658 15.7951 25.3424 15.7951 31.809 15.7951C32.5097 12.0913 30.7779 8.06721 27.5847 5.91501C24.2613 3.69275 19.9169 3.64269 16.6035 5.94504C13.18 8.29745 11.9187 11.6709 12.3291 15.7951Z" fill="#3778C2"/>
<path d="M19.9769 35.8255C20.037 34.5542 19.9769 33.4531 18.9559 32.322C17.5945 30.8505 18.075 28.468 19.6466 27.1967C21.1982 25.9254 23.5005 26.0456 24.8919 27.5171C26.2733 28.9685 26.3534 31.2909 24.952 32.7424C24.3814 33.313 24.2112 33.8936 24.2413 34.6443C24.2813 35.5953 24.2813 36.5162 24.2413 37.4672C24.1812 38.8386 23.2803 39.7696 22.059 39.7395C20.8278 39.7095 20.017 38.8186 19.9769 37.4172C19.9569 36.8766 19.9769 36.3461 19.9769 35.8255Z" fill="#3778C2"/>
</svg>
