<svg width="47" height="50" viewBox="0 0 47 50" fill="none" xmlns="http://www.w3.org/2000/svg">
<path d="M36.36 19.6215C36.76 20.0615 37.34 20.3215 37.94 20.3215C39.12 20.3215 40.07 19.3615 40.07 18.2016C40.1 17.0017 40.1 15.8217 40.07 14.9518C40.04 12.9619 39.34 11.2719 38 9.89201C35.05 6.91215 32.56 4.43228 30.17 2.0924C28.78 0.742463 27.05 0.0224989 25.16 0.0224989C18.22 -0.00749963 11.18 -0.00749963 4.24 0.0224989C3.56 0.0224989 2.86 0.20249 2.26 0.522474C0.78 1.27244 0 2.66237 0 4.54227V45.8802C0.11 48.2301 1.91 50 4.18 50H35.89C37.88 50 39.51 48.7101 39.96 46.7802C40 46.6602 40 46.5002 40.01 46.1702C40.02 46.0302 40.03 45.8502 40.04 45.6602C40.06 45.0502 39.84 44.4703 39.41 44.0303C38.99 43.5903 38.43 43.3503 37.82 43.3503C36.77 43.3503 35.85 44.1103 35.64 45.1402C35.61 45.3002 35.58 45.4702 35.56 45.6302C35.56 45.6602 35.56 45.6902 35.55 45.7302H35.42L4.82 45.7402C4.71 45.7402 4.48 45.7402 4.34 45.7202C4.32 45.5802 4.32 45.3302 4.32 45.2102V4.78226C4.32 4.50228 4.54 4.28229 4.82 4.28229H24.62V5.70222C24.61 7.72211 24.61 9.62202 24.65 11.5719C24.69 12.3619 24.89 13.1318 25.21 13.7418C25.95 15.1617 27.28 15.9017 29.07 15.9017H35.81C35.81 16.0017 35.82 16.1317 35.84 16.3117C35.8 16.7117 35.81 16.9917 35.82 17.2416C35.83 17.4516 35.84 17.6516 35.82 17.9416C35.75 18.5616 35.95 19.1715 36.36 19.6215ZM33.46 11.5819H29.1C29.01 11.5819 28.95 11.5819 28.91 11.5719V6.93215C29.63 7.67212 30.34 8.40208 31.05 9.11204C31.86 9.942 32.66 10.762 33.46 11.5819Z" fill="#3778C2"/>
<path d="M28.38 21.1316C28.38 22.2316 27.63 23.1116 26.56 23.2816C26.31 23.3116 26.04 23.3216 25.77 23.3216C22.2 23.2916 13.33 23.2916 9.60996 23.2916C8.19996 23.2916 7.20996 22.4116 7.20996 21.1616C7.20996 20.0616 7.97996 19.1716 9.04996 19.0516C9.30996 19.0116 9.60996 19.0116 9.87996 19.0116H25.74C26.01 19.0116 26.24 19.0116 26.51 19.0516C27.61 19.1716 28.38 20.0316 28.38 21.1316Z" fill="#3778C2"/>
<path d="M25.7 27.3513C25.7 28.4513 24.95 29.3313 23.88 29.4913C23.64 29.5313 23.36 29.5313 23.09 29.5313C19.52 29.5013 17.07 29.5013 13.51 29.5013H9.60996C8.19996 29.5013 7.20996 28.6313 7.20996 27.3813C7.20996 26.2813 7.97996 25.3913 9.04996 25.2613C9.30996 25.2313 9.60996 25.2313 9.87996 25.2313H23.06C23.33 25.2313 23.57 25.2313 23.84 25.2613C24.93 25.3913 25.7 26.2513 25.7 27.3513Z" fill="#3778C2"/>
<path d="M25.52 33.5709C25.52 34.6709 24.77 35.5509 23.7 35.7209C23.46 35.7509 23.18 35.7609 22.91 35.7609C19.34 35.7309 16.89 35.7309 13.33 35.7309H9.43003C8.01003 35.7309 7.03003 34.8509 7.03003 33.6009C7.03003 32.5009 7.80003 31.6109 8.87003 31.4809C9.13003 31.4509 9.43003 31.4509 9.70003 31.4509H22.88C23.15 31.4509 23.38 31.4509 23.65 31.4909C24.75 31.6109 25.52 32.4709 25.52 33.5709Z" fill="#3778C2"/>
<path d="M20.72 11.782C20.72 13.022 19.8 13.892 18.48 13.892H9.39005C8.34005 13.892 7.48005 13.242 7.26005 12.262C7.03005 11.322 7.46005 10.332 8.27005 9.92201C8.62005 9.73201 9.08005 9.61201 9.52005 9.61201C12.86 9.58201 15.11 9.58201 18.45 9.61201C19.14 9.61201 19.76 9.85201 20.17 10.272C20.55 10.662 20.74 11.192 20.72 11.782Z" fill="#3778C2"/>
<path d="M18.76 39.8606C18.76 41.0906 17.84 41.9706 16.52 41.9706C15.96 41.9806 15.62 41.9806 15.35 41.9806C15.13 41.9806 14.96 41.9806 14.75 41.9706H9.39005C8.34005 41.9706 7.48005 41.3106 7.26005 40.3406C7.03005 39.3906 7.46005 38.4006 8.27005 38.0006C8.62005 37.8106 9.08005 37.6906 9.52005 37.6906C12.83 37.6606 13.17 37.6606 16.49 37.6906C17.19 37.6906 17.8 37.9206 18.21 38.3506C18.59 38.7406 18.78 39.2506 18.76 39.8606Z" fill="#3778C2"/>
<path d="M46.87 26.6714C46.95 25.4614 46.23 24.5614 45 24.3314C44.71 24.2614 44.4 24.2314 44.22 24.2314C43.41 24.1514 42.66 23.9414 41.91 23.6114C41.22 23.3214 40.55 22.9514 39.82 22.4614C39.75 22.4014 39.68 22.3614 39.61 22.3114C39.57 22.2814 39.52 22.2614 39.48 22.2214C39.04 21.8914 38.56 21.7314 38.07 21.7314C37.45 21.7314 36.98 21.9814 36.72 22.1814L36.58 22.2714C36.42 22.3714 36.26 22.4714 36.18 22.5414C36.07 22.6114 35.95 22.6914 35.83 22.7514C35.7 22.8314 35.57 22.9114 35.46 22.9814C34.76 23.4114 34 23.7414 33.18 23.9614C32.54 24.1614 31.87 24.2414 31.28 24.2914C30.19 24.4114 29.42 25.1514 29.27 26.1914C29.24 26.3714 29.23 26.5914 29.23 26.8114V30.2414C29.23 31.1414 29.26 32.0614 29.29 33.0314C29.32 33.9414 29.59 34.8914 30.09 35.8514C30.75 37.1114 31.69 38.1914 33.05 39.2514C33.97 39.9514 34.99 40.5514 36.07 41.0314C36.4 41.1814 36.73 41.3314 37.12 41.4914C37.47 41.6114 37.79 41.6714 38.07 41.6714C38.41 41.6714 38.76 41.5914 39.12 41.4314L40.12 40.9614C40.57 40.7514 41.04 40.5414 41.47 40.2814C43.22 39.3114 44.61 38.0614 45.59 36.5614C46.42 35.2814 46.85 33.9314 46.85 32.5714V31.1614H46.88L46.87 26.6714ZM43.03 28.5814C43.03 29.9514 43.03 31.3414 43 32.7214C43 33.2714 42.79 33.8614 42.35 34.5014C41.65 35.5114 40.76 36.2914 39.62 36.9014C39.14 37.1614 38.66 37.3814 38.12 37.6214C38.1 37.6314 38.07 37.6514 38.05 37.6614C36.63 37.0614 35.48 36.3314 34.56 35.4114C33.76 34.6014 33.34 33.8714 33.22 33.0314C33.16 32.6614 33.14 32.3114 33.14 31.8414V27.9314C34.77 27.6214 36.39 26.9614 38.07 25.9214C39.74 26.9814 41.33 27.6314 43.02 27.9314C43.03 28.1514 43.03 28.3714 43.03 28.5814Z" fill="#3778C2"/>
</svg>
