<svg width="46" height="50" viewBox="0 0 46 50" fill="none" xmlns="http://www.w3.org/2000/svg">
<path d="M38.07 27.3944C39.22 27.3944 40.16 26.4671 40.16 25.3203L40.19 19.477C40.19 17.9414 40.19 16.4357 40.16 14.9299C40.13 12.9556 39.43 11.2704 38.1 9.90427C35.19 6.96266 32.61 4.40993 30.22 2.07658C28.84 0.730418 27.11 0.0224361 25.23 0.0224361C18.25 -0.00747869 11.18 -0.00747869 4.24 0.0224361C3.56 0.0224361 2.86 0.201925 2.27 0.511044C0.76 1.25891 0 2.60508 0 4.49968V45.9216C0.1 48.245 1.89 50 4.14 50H36.01C37.99 50 39.64 48.6738 40.03 46.7592L40.13 46.1111V44.9843C40.13 43.8376 39.19 42.9002 38.04 42.9002C36.89 42.9002 35.96 43.8376 35.96 44.9843V45.7122C35.96 45.7621 35.9 45.802 35.89 45.8119H4.79C4.66 45.8119 4.39 45.8119 4.25 45.792C4.23 45.6424 4.23 45.3632 4.23 45.2236V4.73899C4.23 4.60936 4.23 4.32019 4.25 4.17061C4.39 4.15067 4.66 4.15067 4.79 4.15067H24.74L24.73 5.62646C24.73 7.6507 24.72 9.56524 24.77 11.4798C24.77 12.2077 24.97 12.9955 25.32 13.6636C26.06 15.0596 27.38 15.7975 29.16 15.7975H35.99V25.3203C35.99 26.4671 36.92 27.3944 38.07 27.3944ZM29.19 11.6094C28.97 11.6094 28.91 11.5795 28.94 11.5695V6.76323C29.68 7.51109 30.41 8.25896 31.12 8.98689C31.99 9.87436 32.85 10.7419 33.7 11.6094H29.19Z" fill="#3778C2"/>
<path d="M33.58 21.0126C33.58 22.0895 32.85 22.9571 31.8 23.1166C31.55 23.1565 31.28 23.1565 31 23.1565C27.41 23.1266 23.81 23.1266 20.22 23.1266H9.12001C7.73001 23.1266 6.76001 22.269 6.76001 21.0425C6.76001 19.9656 7.52001 19.0881 8.57001 18.9684C8.83001 18.9385 9.13001 18.9286 9.40001 18.9286H30.97C31.24 18.9286 31.48 18.9385 31.75 18.9684C32.83 19.0881 33.58 19.9357 33.58 21.0126Z" fill="#3778C2"/>
<path d="M33.58 26.7164C33.58 27.7933 32.85 28.6608 31.8 28.8204C31.55 28.8503 31.28 28.8602 31 28.8602C27.41 28.8204 23.81 28.8204 20.22 28.8204H9.12001C7.73001 28.8204 6.76001 27.9728 6.76001 26.7463C6.76001 25.6693 7.52001 24.7918 8.57001 24.6722C8.83001 24.6323 9.13001 24.6323 9.40001 24.6323H30.97C31.24 24.6323 31.48 24.6323 31.75 24.6722C32.83 24.7918 33.58 25.6295 33.58 26.7164Z" fill="#3778C2"/>
<path d="M33.58 32.3802C33.58 33.4572 32.85 34.3247 31.8 34.4842C31.55 34.5241 31.28 34.5241 31 34.5241C27.41 34.5241 23.81 34.5241 20.21 34.4942H9.12001C7.73001 34.4942 6.76001 33.6366 6.76001 32.4101C6.76001 31.3332 7.52001 30.4657 8.57001 30.3361C8.83001 30.3061 9.13001 30.3061 9.40001 30.3061H30.97C31.24 30.3061 31.48 30.3061 31.75 30.3361C32.83 30.4657 33.58 31.3033 33.58 32.3802Z" fill="#3778C2"/>
<path d="M21.2901 13.7633C21.2901 14.9798 20.3801 15.8274 19.0801 15.8274H8.91006C7.87006 15.8274 7.02006 15.1892 6.80006 14.2419C6.58006 13.3046 7.00006 12.3373 7.80006 11.9385C8.14006 11.749 8.60006 11.6393 9.03006 11.6393C12.4001 11.6094 15.6801 11.6094 19.0501 11.6393C19.7401 11.6393 20.3401 11.8687 20.7501 12.2875C21.1201 12.6664 21.3101 13.1849 21.2901 13.7633Z" fill="#3778C2"/>
<path d="M21.2901 38.4729C21.2901 39.6794 20.3801 40.527 19.0801 40.527C18.5201 40.5469 17.9601 40.5469 17.3901 40.5469C16.8301 40.5469 16.2601 40.5469 15.7001 40.537C15.1301 40.537 14.5701 40.527 14.0101 40.527H8.91006C7.87006 40.527 7.02006 39.8888 6.80006 38.9415C6.58006 38.0142 7.00006 37.0369 7.80006 36.6381C8.14006 36.4586 8.60006 36.3389 9.03006 36.3389C12.4001 36.309 15.6801 36.309 19.0501 36.3389C19.7401 36.3389 20.3401 36.5683 20.7501 36.9871C21.1201 37.366 21.3101 37.8845 21.2901 38.4729Z" fill="#3778C2"/>
<path d="M45.56 29.8075L45.54 29.8275C45.41 30.0269 45.28 30.1964 45.11 30.3959C42.68 33.1879 39.59 36.7877 37.52 39.2008L35.7 41.3048C35.45 41.584 35.17 41.8133 34.81 42.0128L32.82 42.9999C32.67 43.0797 32.51 43.1096 32.35 43.1096C32.1 43.1096 31.86 43.0199 31.66 42.8504C31.34 42.5712 31.22 42.1623 31.35 41.7734L31.99 39.6296C32.1 39.2307 32.29 38.8717 32.6 38.5327C32.99 38.084 33.64 37.3261 34.37 36.4686C35.53 35.1124 36.91 33.507 37.85 32.44C38.86 31.2833 39.42 30.6352 39.97 29.987C40.54 29.3289 41.1 28.6808 42.12 27.5041C42.92 26.5967 44.09 26.5069 45.04 27.2947C45.8 27.9229 46.03 29.0298 45.56 29.8075Z" fill="#3778C2"/>
</svg>
